<svg width="654" height="309" viewBox="0 0 654 309" fill="none" xmlns="http://www.w3.org/2000/svg">
<rect width="654" height="309" fill="white"/>
<g clip-path="url(#clip0_1_2)">
<path d="M329 119H327C326.47 119 325.961 119.211 325.586 119.586C325.211 119.961 325 120.47 325 121V133C325 133.53 325.211 134.039 325.586 134.414C325.961 134.789 326.47 135 327 135H337C337.53 135 338.039 134.789 338.414 134.414C338.789 134.039 339 133.53 339 133V121C339 120.47 338.789 119.961 338.414 119.586C338.039 119.211 337.53 119 337 119H335M329 119C329 118.47 329.211 117.961 329.586 117.586C329.961 117.211 330.47 117 331 117H333C333.53 117 334.039 117.211 334.414 117.586C334.789 117.961 335 118.47 335 119M329 119C329 119.53 329.211 120.039 329.586 120.414C329.961 120.789 330.47 121 331 121H333C333.53 121 334.039 120.789 334.414 120.414C334.789 120.039 335 119.53 335 119M329 126H329.01M333 126H335M329 130H329.01M333 130H335" stroke="black" stroke-width="2" stroke-linecap="round" stroke-linejoin="round"/>
<line x1="344" y1="125.5" x2="487" y2="125.493" stroke="black"/>
</g>
<g clip-path="url(#clip1_1_2)">
<path d="M329 154H327C326.47 154 325.961 154.211 325.586 154.586C325.211 154.961 325 155.47 325 156V168C325 168.53 325.211 169.039 325.586 169.414C325.961 169.789 326.47 170 327 170H337C337.53 170 338.039 169.789 338.414 169.414C338.789 169.039 339 168.53 339 168V156C339 155.47 338.789 154.961 338.414 154.586C338.039 154.211 337.53 154 337 154H335M329 154C329 153.47 329.211 152.961 329.586 152.586C329.961 152.211 330.47 152 331 152H333C333.53 152 334.039 152.211 334.414 152.586C334.789 152.961 335 153.47 335 154M329 154C329 154.53 329.211 155.039 329.586 155.414C329.961 155.789 330.47 156 331 156H333C333.53 156 334.039 155.789 334.414 155.414C334.789 155.039 335 154.53 335 154M329 161H329.01M333 161H335M329 165H329.01M333 165H335" stroke="black" stroke-opacity="0.5" stroke-width="2" stroke-linecap="round" stroke-linejoin="round"/>
<line x1="344" y1="160.5" x2="487" y2="160.493" stroke="black" stroke-opacity="0.5"/>
</g>
<path d="M348 161V161.01M352 161V161.01M356 161V161.01M360 161V161.01M364 161V161.01" stroke="black" stroke-opacity="0.5" stroke-width="2" stroke-linecap="round" stroke-linejoin="round"/>
<path d="M154 120C154 120.796 154.843 121.559 156.343 122.121C157.843 122.684 159.878 123 162 123C164.122 123 166.157 122.684 167.657 122.121C169.157 121.559 170 120.796 170 120M154 120C154 119.204 154.843 118.441 156.343 117.879C157.843 117.316 159.878 117 162 117C164.122 117 166.157 117.316 167.657 117.879C169.157 118.441 170 119.204 170 120M154 120V126M170 120V126M154 126C154 126.796 154.843 127.559 156.343 128.121C157.843 128.684 159.878 129 162 129C164.122 129 166.157 128.684 167.657 128.121C169.157 127.559 170 126.796 170 126M154 126V132C154 132.796 154.843 133.559 156.343 134.121C157.843 134.684 159.878 135 162 135C164.122 135 166.157 134.684 167.657 134.121C169.157 133.559 170 132.796 170 132V126" stroke="black" stroke-width="2" stroke-linecap="round" stroke-linejoin="round"/>
<path d="M154 191C154 191.796 154.843 192.559 156.343 193.121C157.843 193.684 159.878 194 162 194C164.122 194 166.157 193.684 167.657 193.121C169.157 192.559 170 191.796 170 191M154 191C154 190.204 154.843 189.441 156.343 188.879C157.843 188.316 159.878 188 162 188C164.122 188 166.157 188.316 167.657 188.879C169.157 189.441 170 190.204 170 191M154 191V197M170 191V197M154 197C154 197.796 154.843 198.559 156.343 199.121C157.843 199.684 159.878 200 162 200C164.122 200 166.157 199.684 167.657 199.121C169.157 198.559 170 197.796 170 197M154 197V203C154 203.796 154.843 204.559 156.343 205.121C157.843 205.684 159.878 206 162 206C164.122 206 166.157 205.684 167.657 205.121C169.157 204.559 170 203.796 170 203V197" stroke="black" stroke-opacity="0.5" stroke-width="2" stroke-linecap="round" stroke-linejoin="round"/>
<path d="M178 197V197.01M182 197V197.01M186 197V197.01M190 197V197.01M194 197V197.01" stroke="black" stroke-opacity="0.5" stroke-width="2" stroke-linecap="round" stroke-linejoin="round"/>
<line x1="174" y1="125.5" x2="320" y2="125.5" stroke="black"/>
<line x1="174.12" y1="125.515" x2="320.12" y2="161.515" stroke="black" stroke-opacity="0.5"/>
<line x1="174.219" y1="125.55" x2="320.219" y2="196.55" stroke="black" stroke-opacity="0.5" stroke-dasharray="2 2"/>
<line x1="344" y1="125.5" x2="487" y2="125.5" stroke="black"/>
<line x1="344.119" y1="125.514" x2="487.119" y2="160.514" stroke="black"/>
<line x1="344.222" y1="125.552" x2="487.222" y2="196.552" stroke="black" stroke-opacity="0.5" stroke-dasharray="2 2"/>
<path d="M112.75 76H110.057V67.2727H112.869C113.716 67.2727 114.44 67.4474 115.043 67.7969C115.645 68.1435 116.107 68.642 116.428 69.2926C116.749 69.9403 116.909 70.7159 116.909 71.6193C116.909 72.5284 116.747 73.3111 116.423 73.9673C116.099 74.6207 115.628 75.1236 115.009 75.4759C114.389 75.8253 113.636 76 112.75 76ZM111.114 75.0625H112.682C113.403 75.0625 114.001 74.9233 114.476 74.6449C114.95 74.3665 115.304 73.9702 115.537 73.456C115.77 72.9418 115.886 72.3295 115.886 71.6193C115.886 70.9148 115.771 70.3082 115.541 69.7997C115.311 69.2884 114.967 68.8963 114.51 68.6236C114.053 68.348 113.483 68.2102 112.801 68.2102H111.114V75.0625ZM120.472 76.1534C120.057 76.1534 119.68 76.0753 119.342 75.919C119.004 75.7599 118.736 75.5312 118.537 75.233C118.338 74.9318 118.239 74.5682 118.239 74.142C118.239 73.767 118.313 73.4631 118.46 73.2301C118.608 72.9943 118.805 72.8097 119.053 72.6761C119.3 72.5426 119.572 72.4432 119.871 72.3778C120.172 72.3097 120.474 72.2557 120.778 72.2159C121.176 72.1648 121.499 72.1264 121.746 72.1009C121.996 72.0724 122.178 72.0256 122.291 71.9602C122.408 71.8949 122.466 71.7812 122.466 71.6193V71.5852C122.466 71.1648 122.351 70.8381 122.121 70.6051C121.893 70.3722 121.548 70.2557 121.085 70.2557C120.605 70.2557 120.229 70.3608 119.956 70.571C119.683 70.7812 119.491 71.0057 119.381 71.2443L118.426 70.9034C118.597 70.5057 118.824 70.196 119.108 69.9744C119.395 69.75 119.707 69.5937 120.045 69.5057C120.386 69.4148 120.722 69.3693 121.051 69.3693C121.261 69.3693 121.503 69.3949 121.776 69.446C122.051 69.4943 122.317 69.5952 122.572 69.7486C122.831 69.902 123.045 70.1335 123.216 70.4432C123.386 70.7528 123.472 71.1676 123.472 71.6875V76H122.466V75.1136H122.415C122.347 75.2557 122.233 75.4077 122.074 75.5696C121.915 75.7315 121.703 75.8693 121.439 75.983C121.175 76.0966 120.852 76.1534 120.472 76.1534ZM120.625 75.25C121.023 75.25 121.358 75.1719 121.631 75.0156C121.906 74.8594 122.114 74.6577 122.253 74.4105C122.395 74.1634 122.466 73.9034 122.466 73.6307V72.7102C122.423 72.7614 122.33 72.8082 122.185 72.8509C122.043 72.8906 121.878 72.9261 121.69 72.9574C121.506 72.9858 121.325 73.0114 121.149 73.0341C120.976 73.054 120.835 73.071 120.727 73.0852C120.466 73.1193 120.222 73.1747 119.994 73.2514C119.77 73.3253 119.588 73.4375 119.449 73.5881C119.313 73.7358 119.244 73.9375 119.244 74.1932C119.244 74.5426 119.374 74.8068 119.632 74.9858C119.893 75.1619 120.224 75.25 120.625 75.25ZM128.154 69.4545V70.3068H124.762V69.4545H128.154ZM125.75 67.8864H126.756V74.125C126.756 74.4091 126.797 74.6222 126.88 74.7642C126.965 74.9034 127.073 74.9972 127.203 75.0455C127.337 75.0909 127.478 75.1136 127.625 75.1136C127.736 75.1136 127.827 75.108 127.898 75.0966C127.969 75.0824 128.026 75.071 128.069 75.0625L128.273 75.9659C128.205 75.9915 128.11 76.017 127.988 76.0426C127.865 76.071 127.711 76.0852 127.523 76.0852C127.239 76.0852 126.961 76.0241 126.688 75.902C126.418 75.7798 126.194 75.5938 126.015 75.3438C125.838 75.0938 125.75 74.7784 125.75 74.3977V67.8864ZM131.593 76.1534C131.178 76.1534 130.801 76.0753 130.463 75.919C130.125 75.7599 129.857 75.5312 129.658 75.233C129.459 74.9318 129.36 74.5682 129.36 74.142C129.36 73.767 129.434 73.4631 129.581 73.2301C129.729 72.9943 129.926 72.8097 130.174 72.6761C130.421 72.5426 130.694 72.4432 130.992 72.3778C131.293 72.3097 131.596 72.2557 131.9 72.2159C132.297 72.1648 132.62 72.1264 132.867 72.1009C133.117 72.0724 133.299 72.0256 133.412 71.9602C133.529 71.8949 133.587 71.7812 133.587 71.6193V71.5852C133.587 71.1648 133.472 70.8381 133.242 70.6051C133.015 70.3722 132.669 70.2557 132.206 70.2557C131.726 70.2557 131.35 70.3608 131.077 70.571C130.804 70.7812 130.613 71.0057 130.502 71.2443L129.547 70.9034C129.718 70.5057 129.945 70.196 130.229 69.9744C130.516 69.75 130.828 69.5937 131.167 69.5057C131.507 69.4148 131.843 69.3693 132.172 69.3693C132.382 69.3693 132.624 69.3949 132.897 69.446C133.172 69.4943 133.438 69.5952 133.694 69.7486C133.952 69.902 134.167 70.1335 134.337 70.4432C134.507 70.7528 134.593 71.1676 134.593 71.6875V76H133.587V75.1136H133.536C133.468 75.2557 133.354 75.4077 133.195 75.5696C133.036 75.7315 132.824 75.8693 132.56 75.983C132.296 76.0966 131.973 76.1534 131.593 76.1534ZM131.746 75.25C132.144 75.25 132.479 75.1719 132.752 75.0156C133.027 74.8594 133.235 74.6577 133.374 74.4105C133.516 74.1634 133.587 73.9034 133.587 73.6307V72.7102C133.544 72.7614 133.451 72.8082 133.306 72.8509C133.164 72.8906 132.999 72.9261 132.811 72.9574C132.627 72.9858 132.446 73.0114 132.27 73.0341C132.097 73.054 131.956 73.071 131.848 73.0852C131.587 73.1193 131.343 73.1747 131.115 73.2514C130.891 73.3253 130.709 73.4375 130.57 73.5881C130.434 73.7358 130.365 73.9375 130.365 74.1932C130.365 74.5426 130.495 74.8068 130.753 74.9858C131.015 75.1619 131.346 75.25 131.746 75.25ZM136.565 76V67.2727H137.57V70.4943H137.656C137.729 70.3807 137.832 70.2358 137.962 70.0597C138.096 69.8807 138.286 69.7216 138.533 69.5824C138.783 69.4403 139.121 69.3693 139.548 69.3693C140.099 69.3693 140.585 69.5071 141.005 69.7827C141.425 70.0582 141.754 70.4489 141.989 70.9545C142.225 71.4602 142.343 72.0568 142.343 72.7443C142.343 73.4375 142.225 74.0384 141.989 74.5469C141.754 75.0526 141.427 75.4446 141.009 75.723C140.592 75.9986 140.11 76.1364 139.565 76.1364C139.144 76.1364 138.808 76.0668 138.555 75.9276C138.302 75.7855 138.107 75.625 137.971 75.446C137.835 75.2642 137.729 75.1136 137.656 74.9943H137.536V76H136.565ZM137.553 72.7273C137.553 73.2216 137.626 73.6577 137.771 74.0355C137.915 74.4105 138.127 74.7045 138.406 74.9176C138.684 75.1278 139.025 75.233 139.428 75.233C139.849 75.233 140.2 75.1222 140.481 74.9006C140.765 74.6761 140.978 74.375 141.12 73.9972C141.265 73.6165 141.337 73.1932 141.337 72.7273C141.337 72.267 141.266 71.8523 141.124 71.483C140.985 71.1108 140.773 70.8168 140.489 70.6009C140.208 70.3821 139.854 70.2727 139.428 70.2727C139.019 70.2727 138.675 70.3764 138.397 70.5838C138.119 70.7884 137.908 71.0753 137.766 71.4446C137.624 71.8111 137.553 72.2386 137.553 72.7273ZM145.808 76.1534C145.393 76.1534 145.016 76.0753 144.678 75.919C144.34 75.7599 144.072 75.5312 143.873 75.233C143.674 74.9318 143.575 74.5682 143.575 74.142C143.575 73.767 143.648 73.4631 143.796 73.2301C143.944 72.9943 144.141 72.8097 144.388 72.6761C144.636 72.5426 144.908 72.4432 145.207 72.3778C145.508 72.3097 145.81 72.2557 146.114 72.2159C146.512 72.1648 146.835 72.1264 147.082 72.1009C147.332 72.0724 147.513 72.0256 147.627 71.9602C147.744 71.8949 147.802 71.7812 147.802 71.6193V71.5852C147.802 71.1648 147.687 70.8381 147.457 70.6051C147.229 70.3722 146.884 70.2557 146.421 70.2557C145.941 70.2557 145.565 70.3608 145.292 70.571C145.019 70.7812 144.827 71.0057 144.717 71.2443L143.762 70.9034C143.933 70.5057 144.16 70.196 144.444 69.9744C144.731 69.75 145.043 69.5937 145.381 69.5057C145.722 69.4148 146.058 69.3693 146.387 69.3693C146.597 69.3693 146.839 69.3949 147.112 69.446C147.387 69.4943 147.653 69.5952 147.908 69.7486C148.167 69.902 148.381 70.1335 148.552 70.4432C148.722 70.7528 148.808 71.1676 148.808 71.6875V76H147.802V75.1136H147.751C147.683 75.2557 147.569 75.4077 147.41 75.5696C147.251 75.7315 147.039 75.8693 146.775 75.983C146.511 76.0966 146.188 76.1534 145.808 76.1534ZM145.961 75.25C146.359 75.25 146.694 75.1719 146.967 75.0156C147.242 74.8594 147.45 74.6577 147.589 74.4105C147.731 74.1634 147.802 73.9034 147.802 73.6307V72.7102C147.759 72.7614 147.665 72.8082 147.521 72.8509C147.379 72.8906 147.214 72.9261 147.026 72.9574C146.842 72.9858 146.661 73.0114 146.485 73.0341C146.312 73.054 146.171 73.071 146.063 73.0852C145.802 73.1193 145.558 73.1747 145.33 73.2514C145.106 73.3253 144.924 73.4375 144.785 73.5881C144.648 73.7358 144.58 73.9375 144.58 74.1932C144.58 74.5426 144.71 74.8068 144.968 74.9858C145.229 75.1619 145.56 75.25 145.961 75.25ZM155.279 70.9205L154.376 71.1761C154.319 71.0256 154.235 70.8793 154.125 70.7372C154.017 70.5923 153.869 70.473 153.681 70.3793C153.494 70.2855 153.254 70.2386 152.961 70.2386C152.561 70.2386 152.227 70.331 151.96 70.5156C151.696 70.6974 151.564 70.929 151.564 71.2102C151.564 71.4602 151.654 71.6577 151.836 71.8026C152.018 71.9474 152.302 72.0682 152.689 72.1648L153.66 72.4034C154.245 72.5455 154.681 72.7628 154.968 73.0554C155.255 73.3452 155.399 73.7187 155.399 74.1761C155.399 74.5511 155.291 74.8864 155.075 75.1818C154.862 75.4773 154.564 75.7102 154.18 75.8807C153.797 76.0511 153.35 76.1364 152.842 76.1364C152.174 76.1364 151.622 75.9915 151.184 75.7017C150.747 75.4119 150.47 74.9886 150.353 74.4318L151.308 74.1932C151.399 74.5455 151.571 74.8097 151.824 74.9858C152.079 75.1619 152.413 75.25 152.825 75.25C153.294 75.25 153.666 75.1506 153.941 74.9517C154.22 74.75 154.359 74.5085 154.359 74.2273C154.359 74 154.279 73.8097 154.12 73.6562C153.961 73.5 153.717 73.3835 153.387 73.3068L152.297 73.0511C151.697 72.9091 151.257 72.6889 150.975 72.3906C150.697 72.0895 150.558 71.7131 150.558 71.2614C150.558 70.892 150.662 70.5653 150.869 70.2812C151.079 69.9972 151.365 69.7741 151.725 69.6122C152.089 69.4503 152.501 69.3693 152.961 69.3693C153.609 69.3693 154.118 69.5114 154.487 69.7955C154.859 70.0795 155.123 70.4545 155.279 70.9205ZM159.657 76.1364C159.026 76.1364 158.482 75.9972 158.025 75.7188C157.57 75.4375 157.219 75.0455 156.972 74.5426C156.728 74.0369 156.606 73.4489 156.606 72.7784C156.606 72.108 156.728 71.517 156.972 71.0057C157.219 70.4915 157.563 70.0909 158.004 69.804C158.447 69.5142 158.964 69.3693 159.555 69.3693C159.896 69.3693 160.232 69.4261 160.565 69.5398C160.897 69.6534 161.2 69.8381 161.472 70.0938C161.745 70.3466 161.962 70.6818 162.124 71.0994C162.286 71.517 162.367 72.0312 162.367 72.642V73.0682H157.322V72.1989H161.344C161.344 71.8295 161.271 71.5 161.123 71.2102C160.978 70.9205 160.771 70.6918 160.501 70.5241C160.234 70.3565 159.918 70.2727 159.555 70.2727C159.154 70.2727 158.808 70.3722 158.515 70.571C158.225 70.767 158.002 71.0227 157.846 71.3381C157.69 71.6534 157.612 71.9915 157.612 72.3523V72.9318C157.612 73.4261 157.697 73.8452 157.867 74.1889C158.04 74.5298 158.281 74.7898 158.587 74.9688C158.894 75.1449 159.251 75.233 159.657 75.233C159.921 75.233 160.16 75.196 160.373 75.1222C160.589 75.0455 160.775 74.9318 160.931 74.7812C161.087 74.6278 161.208 74.4375 161.293 74.2102L162.265 74.483C162.163 74.8125 161.991 75.1023 161.749 75.3523C161.508 75.5994 161.21 75.7926 160.854 75.9318C160.499 76.0682 160.1 76.1364 159.657 76.1364ZM172.181 69.4545C172.13 69.0227 171.923 68.6875 171.559 68.4489C171.195 68.2102 170.749 68.0909 170.221 68.0909C169.835 68.0909 169.496 68.1534 169.207 68.2784C168.92 68.4034 168.695 68.5753 168.533 68.794C168.374 69.0128 168.295 69.2614 168.295 69.5398C168.295 69.7727 168.35 69.973 168.461 70.1406C168.575 70.3054 168.719 70.4432 168.896 70.554C169.072 70.6619 169.256 70.7514 169.45 70.8224C169.643 70.8906 169.82 70.946 169.982 70.9886L170.869 71.2273C171.096 71.2869 171.349 71.3693 171.627 71.4744C171.908 71.5795 172.177 71.723 172.433 71.9048C172.691 72.0838 172.904 72.3139 173.072 72.5952C173.239 72.8764 173.323 73.2216 173.323 73.6307C173.323 74.1023 173.2 74.5284 172.952 74.9091C172.708 75.2898 172.35 75.5923 171.879 75.8168C171.41 76.0412 170.84 76.1534 170.17 76.1534C169.545 76.1534 169.004 76.0526 168.546 75.8509C168.092 75.6491 167.734 75.3679 167.472 75.0071C167.214 74.6463 167.067 74.2273 167.033 73.75H168.124C168.153 74.0795 168.263 74.3523 168.457 74.5682C168.653 74.7812 168.9 74.9403 169.198 75.0455C169.499 75.1477 169.823 75.1989 170.17 75.1989C170.573 75.1989 170.935 75.1335 171.256 75.0028C171.577 74.8693 171.832 74.6847 172.019 74.4489C172.207 74.2102 172.3 73.9318 172.3 73.6136C172.3 73.3239 172.219 73.0881 172.058 72.9062C171.896 72.7244 171.683 72.5767 171.418 72.4631C171.154 72.3494 170.869 72.25 170.562 72.1648L169.488 71.858C168.806 71.6619 168.266 71.3821 167.869 71.0185C167.471 70.6548 167.272 70.179 167.272 69.5909C167.272 69.1023 167.404 68.6761 167.668 68.3125C167.935 67.946 168.293 67.6619 168.742 67.4602C169.194 67.2557 169.698 67.1534 170.255 67.1534C170.817 67.1534 171.317 67.2543 171.755 67.456C172.192 67.6548 172.539 67.9276 172.795 68.2741C173.053 68.6207 173.19 69.0142 173.204 69.4545H172.181ZM175.572 78.4545C175.402 78.4545 175.25 78.4403 175.116 78.4119C174.983 78.3864 174.89 78.3608 174.839 78.3352L175.095 77.4489C175.339 77.5114 175.555 77.5341 175.743 77.517C175.93 77.5 176.096 77.4162 176.241 77.2656C176.389 77.1179 176.524 76.8778 176.646 76.5455L176.833 76.0341L174.413 69.4545H175.504L177.311 74.6705H177.379L179.186 69.4545H180.277L177.498 76.9545C177.373 77.2926 177.218 77.5724 177.034 77.794C176.849 78.0185 176.635 78.1847 176.39 78.2926C176.149 78.4006 175.876 78.4545 175.572 78.4545ZM186.24 70.9205L185.337 71.1761C185.28 71.0256 185.196 70.8793 185.086 70.7372C184.978 70.5923 184.83 70.473 184.642 70.3793C184.455 70.2855 184.215 70.2386 183.922 70.2386C183.522 70.2386 183.188 70.331 182.921 70.5156C182.657 70.6974 182.525 70.929 182.525 71.2102C182.525 71.4602 182.615 71.6577 182.797 71.8026C182.979 71.9474 183.263 72.0682 183.65 72.1648L184.621 72.4034C185.206 72.5455 185.642 72.7628 185.929 73.0554C186.216 73.3452 186.36 73.7187 186.36 74.1761C186.36 74.5511 186.252 74.8864 186.036 75.1818C185.823 75.4773 185.525 75.7102 185.141 75.8807C184.757 76.0511 184.311 76.1364 183.803 76.1364C183.135 76.1364 182.583 75.9915 182.145 75.7017C181.708 75.4119 181.431 74.9886 181.314 74.4318L182.269 74.1932C182.36 74.5455 182.532 74.8097 182.784 74.9858C183.04 75.1619 183.374 75.25 183.786 75.25C184.255 75.25 184.627 75.1506 184.902 74.9517C185.181 74.75 185.32 74.5085 185.32 74.2273C185.32 74 185.24 73.8097 185.081 73.6562C184.922 73.5 184.678 73.3835 184.348 73.3068L183.257 73.0511C182.658 72.9091 182.218 72.6889 181.936 72.3906C181.658 72.0895 181.519 71.7131 181.519 71.2614C181.519 70.892 181.623 70.5653 181.83 70.2812C182.04 69.9972 182.326 69.7741 182.686 69.6122C183.05 69.4503 183.462 69.3693 183.922 69.3693C184.57 69.3693 185.078 69.5114 185.448 69.7955C185.82 70.0795 186.084 70.4545 186.24 70.9205ZM190.72 69.4545V70.3068H187.328V69.4545H190.72ZM188.317 67.8864H189.322V74.125C189.322 74.4091 189.364 74.6222 189.446 74.7642C189.531 74.9034 189.639 74.9972 189.77 75.0455C189.903 75.0909 190.044 75.1136 190.192 75.1136C190.303 75.1136 190.393 75.108 190.464 75.0966C190.536 75.0824 190.592 75.071 190.635 75.0625L190.839 75.9659C190.771 75.9915 190.676 76.017 190.554 76.0426C190.432 76.071 190.277 76.0852 190.089 76.0852C189.805 76.0852 189.527 76.0241 189.254 75.902C188.984 75.7798 188.76 75.5938 188.581 75.3438C188.405 75.0938 188.317 74.7784 188.317 74.3977V67.8864ZM194.907 76.1364C194.276 76.1364 193.732 75.9972 193.275 75.7188C192.82 75.4375 192.469 75.0455 192.222 74.5426C191.978 74.0369 191.856 73.4489 191.856 72.7784C191.856 72.108 191.978 71.517 192.222 71.0057C192.469 70.4915 192.813 70.0909 193.254 69.804C193.697 69.5142 194.214 69.3693 194.805 69.3693C195.146 69.3693 195.482 69.4261 195.815 69.5398C196.147 69.6534 196.45 69.8381 196.722 70.0938C196.995 70.3466 197.212 70.6818 197.374 71.0994C197.536 71.517 197.617 72.0312 197.617 72.642V73.0682H192.572V72.1989H196.594C196.594 71.8295 196.521 71.5 196.373 71.2102C196.228 70.9205 196.021 70.6918 195.751 70.5241C195.484 70.3565 195.168 70.2727 194.805 70.2727C194.404 70.2727 194.058 70.3722 193.765 70.571C193.475 70.767 193.252 71.0227 193.096 71.3381C192.94 71.6534 192.862 71.9915 192.862 72.3523V72.9318C192.862 73.4261 192.947 73.8452 193.117 74.1889C193.29 74.5298 193.531 74.7898 193.837 74.9688C194.144 75.1449 194.501 75.233 194.907 75.233C195.171 75.233 195.41 75.196 195.623 75.1222C195.839 75.0455 196.025 74.9318 196.181 74.7812C196.337 74.6278 196.458 74.4375 196.543 74.2102L197.515 74.483C197.413 74.8125 197.241 75.1023 196.999 75.3523C196.758 75.5994 196.46 75.7926 196.104 75.9318C195.749 76.0682 195.35 76.1364 194.907 76.1364ZM199.147 76V69.4545H200.119V70.4773H200.204C200.34 70.1278 200.56 69.8565 200.864 69.6634C201.168 69.4673 201.533 69.3693 201.96 69.3693C202.391 69.3693 202.751 69.4673 203.038 69.6634C203.327 69.8565 203.553 70.1278 203.715 70.4773H203.783C203.951 70.1392 204.202 69.8707 204.538 69.6719C204.873 69.4702 205.275 69.3693 205.744 69.3693C206.329 69.3693 206.808 69.5526 207.18 69.919C207.552 70.2827 207.738 70.8494 207.738 71.6193V76H206.732V71.6193C206.732 71.1364 206.6 70.7912 206.336 70.5838C206.072 70.3764 205.761 70.2727 205.403 70.2727C204.942 70.2727 204.586 70.4119 204.333 70.6903C204.08 70.9659 203.954 71.3153 203.954 71.7386V76H202.931V71.517C202.931 71.1449 202.81 70.8452 202.569 70.6179C202.327 70.3878 202.016 70.2727 201.636 70.2727C201.374 70.2727 201.13 70.3423 200.903 70.4815C200.678 70.6207 200.496 70.8139 200.357 71.0611C200.221 71.3054 200.153 71.5881 200.153 71.9091V76H199.147ZM214.213 70.9205L213.31 71.1761C213.253 71.0256 213.169 70.8793 213.058 70.7372C212.95 70.5923 212.803 70.473 212.615 70.3793C212.428 70.2855 212.188 70.2386 211.895 70.2386C211.494 70.2386 211.161 70.331 210.893 70.5156C210.629 70.6974 210.497 70.929 210.497 71.2102C210.497 71.4602 210.588 71.6577 210.77 71.8026C210.952 71.9474 211.236 72.0682 211.622 72.1648L212.594 72.4034C213.179 72.5455 213.615 72.7628 213.902 73.0554C214.189 73.3452 214.332 73.7187 214.332 74.1761C214.332 74.5511 214.224 74.8864 214.009 75.1818C213.795 75.4773 213.497 75.7102 213.114 75.8807C212.73 76.0511 212.284 76.1364 211.776 76.1364C211.108 76.1364 210.555 75.9915 210.118 75.7017C209.68 75.4119 209.403 74.9886 209.287 74.4318L210.241 74.1932C210.332 74.5455 210.504 74.8097 210.757 74.9858C211.013 75.1619 211.347 75.25 211.759 75.25C212.227 75.25 212.599 75.1506 212.875 74.9517C213.153 74.75 213.293 74.5085 213.293 74.2273C213.293 74 213.213 73.8097 213.054 73.6562C212.895 73.5 212.651 73.3835 212.321 73.3068L211.23 73.0511C210.631 72.9091 210.19 72.6889 209.909 72.3906C209.631 72.0895 209.491 71.7131 209.491 71.2614C209.491 70.892 209.595 70.5653 209.803 70.2812C210.013 69.9972 210.298 69.7741 210.659 69.6122C211.023 69.4503 211.435 69.3693 211.895 69.3693C212.543 69.3693 213.051 69.5114 213.42 69.7955C213.793 70.0795 214.057 70.4545 214.213 70.9205Z" fill="black"/>
<path d="M40.0795 168H39.0227C38.9602 167.696 38.8509 167.429 38.6946 167.199C38.5412 166.969 38.3537 166.776 38.1321 166.619C37.9134 166.46 37.6705 166.341 37.4034 166.261C37.1364 166.182 36.858 166.142 36.5682 166.142C36.0398 166.142 35.5611 166.276 35.1321 166.543C34.706 166.81 34.3665 167.203 34.1136 167.723C33.8636 168.243 33.7386 168.881 33.7386 169.636C33.7386 170.392 33.8636 171.03 34.1136 171.55C34.3665 172.07 34.706 172.463 35.1321 172.73C35.5611 172.997 36.0398 173.131 36.5682 173.131C36.858 173.131 37.1364 173.091 37.4034 173.011C37.6705 172.932 37.9134 172.814 38.1321 172.658C38.3537 172.499 38.5412 172.304 38.6946 172.074C38.8509 171.841 38.9602 171.574 39.0227 171.273H40.0795C40 171.719 39.8551 172.118 39.6449 172.47C39.4347 172.822 39.1733 173.122 38.8608 173.369C38.5483 173.614 38.1974 173.8 37.8082 173.928C37.4219 174.055 37.0085 174.119 36.5682 174.119C35.8239 174.119 35.1619 173.938 34.5824 173.574C34.0028 173.21 33.5469 172.693 33.2145 172.023C32.8821 171.352 32.7159 170.557 32.7159 169.636C32.7159 168.716 32.8821 167.92 33.2145 167.25C33.5469 166.58 34.0028 166.062 34.5824 165.699C35.1619 165.335 35.8239 165.153 36.5682 165.153C37.0085 165.153 37.4219 165.217 37.8082 165.345C38.1974 165.473 38.5483 165.661 38.8608 165.908C39.1733 166.152 39.4347 166.45 39.6449 166.803C39.8551 167.152 40 167.551 40.0795 168ZM46.56 167.455C46.5089 167.023 46.3015 166.688 45.9379 166.449C45.5742 166.21 45.1282 166.091 44.5998 166.091C44.2134 166.091 43.8754 166.153 43.5856 166.278C43.2987 166.403 43.0742 166.575 42.9123 166.794C42.7532 167.013 42.6737 167.261 42.6737 167.54C42.6737 167.773 42.729 167.973 42.8398 168.141C42.9535 168.305 43.0984 168.443 43.2745 168.554C43.4506 168.662 43.6353 168.751 43.8285 168.822C44.0217 168.891 44.1992 168.946 44.3612 168.989L45.2475 169.227C45.4748 169.287 45.7276 169.369 46.006 169.474C46.2873 169.58 46.5558 169.723 46.8114 169.905C47.07 170.084 47.283 170.314 47.4506 170.595C47.6183 170.876 47.7021 171.222 47.7021 171.631C47.7021 172.102 47.5785 172.528 47.3313 172.909C47.087 173.29 46.729 173.592 46.2575 173.817C45.7887 174.041 45.2191 174.153 44.5487 174.153C43.9237 174.153 43.3825 174.053 42.9251 173.851C42.4705 173.649 42.1126 173.368 41.8512 173.007C41.5927 172.646 41.4464 172.227 41.4123 171.75H42.5032C42.5316 172.08 42.6424 172.352 42.8356 172.568C43.0316 172.781 43.2788 172.94 43.5771 173.045C43.8782 173.148 44.2021 173.199 44.5487 173.199C44.9521 173.199 45.3143 173.134 45.6353 173.003C45.9563 172.869 46.2106 172.685 46.3981 172.449C46.5856 172.21 46.6793 171.932 46.6793 171.614C46.6793 171.324 46.5984 171.088 46.4364 170.906C46.2745 170.724 46.0614 170.577 45.7972 170.463C45.533 170.349 45.2475 170.25 44.9407 170.165L43.8668 169.858C43.185 169.662 42.6452 169.382 42.2475 169.018C41.8498 168.655 41.6509 168.179 41.6509 167.591C41.6509 167.102 41.783 166.676 42.0472 166.312C42.3143 165.946 42.6722 165.662 43.1211 165.46C43.5728 165.256 44.0771 165.153 44.6339 165.153C45.1964 165.153 45.6964 165.254 46.1339 165.456C46.5714 165.655 46.918 165.928 47.1737 166.274C47.4322 166.621 47.5685 167.014 47.5827 167.455H46.56ZM49.7976 165.273L52.3885 172.619H52.4908L55.0817 165.273H56.1896L52.9851 174H51.8942L48.6896 165.273H49.7976ZM60.924 174V165.273H66.157V166.21H61.9808V169.159H65.7649V170.097H61.9808V174H60.924ZM67.8306 174V167.455H68.8363V174H67.8306ZM68.342 166.364C68.146 166.364 67.9769 166.297 67.8349 166.163C67.6957 166.03 67.6261 165.869 67.6261 165.682C67.6261 165.494 67.6957 165.334 67.8349 165.2C67.9769 165.067 68.146 165 68.342 165C68.538 165 68.7056 165.067 68.8448 165.2C68.9869 165.334 69.0579 165.494 69.0579 165.682C69.0579 165.869 68.9869 166.03 68.8448 166.163C68.7056 166.297 68.538 166.364 68.342 166.364ZM71.6839 165.273V174H70.6783V165.273H71.6839ZM76.2702 174.136C75.6396 174.136 75.0955 173.997 74.6381 173.719C74.1836 173.438 73.8327 173.045 73.5856 172.543C73.3413 172.037 73.2191 171.449 73.2191 170.778C73.2191 170.108 73.3413 169.517 73.5856 169.006C73.8327 168.491 74.1765 168.091 74.6168 167.804C75.06 167.514 75.5771 167.369 76.168 167.369C76.5089 167.369 76.8455 167.426 77.1779 167.54C77.5103 167.653 77.8129 167.838 78.0856 168.094C78.3583 168.347 78.5756 168.682 78.7376 169.099C78.8995 169.517 78.9805 170.031 78.9805 170.642V171.068H73.935V170.199H77.9577C77.9577 169.83 77.8839 169.5 77.7362 169.21C77.5913 168.92 77.3839 168.692 77.114 168.524C76.8469 168.357 76.5316 168.273 76.168 168.273C75.7674 168.273 75.4208 168.372 75.1282 168.571C74.8384 168.767 74.6154 169.023 74.4592 169.338C74.3029 169.653 74.2248 169.991 74.2248 170.352V170.932C74.2248 171.426 74.31 171.845 74.4805 172.189C74.6538 172.53 74.8938 172.79 75.2006 172.969C75.5075 173.145 75.864 173.233 76.2702 173.233C76.5344 173.233 76.7731 173.196 76.9862 173.122C77.2021 173.045 77.3881 172.932 77.5444 172.781C77.7006 172.628 77.8214 172.437 77.9066 172.21L78.8782 172.483C78.7759 172.812 78.604 173.102 78.3626 173.352C78.1211 173.599 77.8228 173.793 77.4677 173.932C77.1126 174.068 76.7134 174.136 76.2702 174.136Z" fill="black"/>
<path d="M286.057 76V67.2727H291.324V68.2102H287.114V71.1591H291.051V72.0966H287.114V75.0625H291.392V76H286.057ZM293.842 69.4545L295.411 72.1307L296.979 69.4545H298.138L296.024 72.7273L298.138 76H296.979L295.411 73.4602L293.842 76H292.683L294.763 72.7273L292.683 69.4545H293.842ZM302.048 76.1364C301.417 76.1364 300.873 75.9972 300.415 75.7188C299.961 75.4375 299.61 75.0455 299.363 74.5426C299.119 74.0369 298.996 73.4489 298.996 72.7784C298.996 72.108 299.119 71.517 299.363 71.0057C299.61 70.4915 299.954 70.0909 300.394 69.804C300.837 69.5142 301.354 69.3693 301.945 69.3693C302.286 69.3693 302.623 69.4261 302.955 69.5398C303.288 69.6534 303.59 69.8381 303.863 70.0938C304.136 70.3466 304.353 70.6818 304.515 71.0994C304.677 71.517 304.758 72.0312 304.758 72.642V73.0682H299.712V72.1989H303.735C303.735 71.8295 303.661 71.5 303.513 71.2102C303.369 70.9205 303.161 70.6918 302.891 70.5241C302.624 70.3565 302.309 70.2727 301.945 70.2727C301.545 70.2727 301.198 70.3722 300.906 70.571C300.616 70.767 300.393 71.0227 300.237 71.3381C300.08 71.6534 300.002 71.9915 300.002 72.3523V72.9318C300.002 73.4261 300.087 73.8452 300.258 74.1889C300.431 74.5298 300.671 74.7898 300.978 74.9688C301.285 75.1449 301.641 75.233 302.048 75.233C302.312 75.233 302.55 75.196 302.763 75.1222C302.979 75.0455 303.165 74.9318 303.322 74.7812C303.478 74.6278 303.599 74.4375 303.684 74.2102L304.656 74.483C304.553 74.8125 304.381 75.1023 304.14 75.3523C303.898 75.5994 303.6 75.7926 303.245 75.9318C302.89 76.0682 302.491 76.1364 302.048 76.1364ZM308.947 76.1364C308.333 76.1364 307.805 75.9915 307.362 75.7017C306.918 75.4119 306.577 75.0128 306.339 74.5043C306.1 73.9957 305.981 73.4148 305.981 72.7614C305.981 72.0966 306.103 71.5099 306.347 71.0014C306.594 70.4901 306.938 70.0909 307.379 69.804C307.822 69.5142 308.339 69.3693 308.93 69.3693C309.39 69.3693 309.805 69.4545 310.174 69.625C310.543 69.7955 310.846 70.0341 311.082 70.3409C311.317 70.6477 311.464 71.0057 311.521 71.4148H310.515C310.438 71.1165 310.268 70.8523 310.004 70.6222C309.742 70.3892 309.39 70.2727 308.947 70.2727C308.555 70.2727 308.211 70.375 307.915 70.5795C307.623 70.7812 307.394 71.0668 307.229 71.4361C307.067 71.8026 306.987 72.233 306.987 72.7273C306.987 73.233 307.066 73.6733 307.225 74.0483C307.387 74.4233 307.614 74.7145 307.907 74.9219C308.202 75.1293 308.549 75.233 308.947 75.233C309.208 75.233 309.445 75.1875 309.658 75.0966C309.871 75.0057 310.052 74.875 310.2 74.7045C310.347 74.5341 310.452 74.3295 310.515 74.0909H311.521C311.464 74.4773 311.323 74.8253 311.099 75.1349C310.877 75.4418 310.583 75.6861 310.217 75.8679C309.853 76.0469 309.43 76.1364 308.947 76.1364ZM317.116 73.3239V69.4545H318.121V76H317.116V74.892H317.048C316.894 75.2244 316.656 75.5071 316.332 75.7401C316.008 75.9702 315.599 76.0852 315.104 76.0852C314.695 76.0852 314.332 75.9957 314.013 75.8168C313.695 75.6349 313.445 75.3622 313.263 74.9986C313.082 74.6321 312.991 74.1705 312.991 73.6136V69.4545H313.996V73.5455C313.996 74.0227 314.13 74.4034 314.397 74.6875C314.667 74.9716 315.011 75.1136 315.428 75.1136C315.678 75.1136 315.933 75.0497 316.191 74.9219C316.452 74.794 316.671 74.598 316.847 74.3338C317.026 74.0696 317.116 73.733 317.116 73.3239ZM322.81 69.4545V70.3068H319.418V69.4545H322.81ZM320.407 67.8864H321.412V74.125C321.412 74.4091 321.453 74.6222 321.536 74.7642C321.621 74.9034 321.729 74.9972 321.86 75.0455C321.993 75.0909 322.134 75.1136 322.282 75.1136C322.392 75.1136 322.483 75.108 322.554 75.0966C322.625 75.0824 322.682 75.071 322.725 75.0625L322.929 75.9659C322.861 75.9915 322.766 76.017 322.644 76.0426C322.522 76.071 322.367 76.0852 322.179 76.0852C321.895 76.0852 321.617 76.0241 321.344 75.902C321.074 75.7798 320.85 75.5938 320.671 75.3438C320.495 75.0938 320.407 74.7784 320.407 74.3977V67.8864ZM326.997 76.1364C326.366 76.1364 325.822 75.9972 325.365 75.7188C324.91 75.4375 324.559 75.0455 324.312 74.5426C324.068 74.0369 323.946 73.4489 323.946 72.7784C323.946 72.108 324.068 71.517 324.312 71.0057C324.559 70.4915 324.903 70.0909 325.343 69.804C325.787 69.5142 326.304 69.3693 326.895 69.3693C327.235 69.3693 327.572 69.4261 327.904 69.5398C328.237 69.6534 328.539 69.8381 328.812 70.0938C329.085 70.3466 329.302 70.6818 329.464 71.0994C329.626 71.517 329.707 72.0312 329.707 72.642V73.0682H324.662V72.1989H328.684C328.684 71.8295 328.61 71.5 328.463 71.2102C328.318 70.9205 328.11 70.6918 327.841 70.5241C327.574 70.3565 327.258 70.2727 326.895 70.2727C326.494 70.2727 326.147 70.3722 325.855 70.571C325.565 70.767 325.342 71.0227 325.186 71.3381C325.029 71.6534 324.951 71.9915 324.951 72.3523V72.9318C324.951 73.4261 325.037 73.8452 325.207 74.1889C325.38 74.5298 325.62 74.7898 325.927 74.9688C326.234 75.1449 326.591 75.233 326.997 75.233C327.261 75.233 327.5 75.196 327.713 75.1222C327.929 75.0455 328.115 74.9318 328.271 74.7812C328.427 74.6278 328.548 74.4375 328.633 74.2102L329.605 74.483C329.502 74.8125 329.331 75.1023 329.089 75.3523C328.848 75.5994 328.549 75.7926 328.194 75.9318C327.839 76.0682 327.44 76.1364 326.997 76.1364ZM333.708 76.1364C333.163 76.1364 332.681 75.9986 332.264 75.723C331.846 75.4446 331.52 75.0526 331.284 74.5469C331.048 74.0384 330.93 73.4375 330.93 72.7443C330.93 72.0568 331.048 71.4602 331.284 70.9545C331.52 70.4489 331.848 70.0582 332.268 69.7827C332.689 69.5071 333.174 69.3693 333.725 69.3693C334.152 69.3693 334.488 69.4403 334.735 69.5824C334.985 69.7216 335.176 69.8807 335.306 70.0597C335.44 70.2358 335.544 70.3807 335.618 70.4943H335.703V67.2727H336.708V76H335.737V74.9943H335.618C335.544 75.1136 335.439 75.2642 335.302 75.446C335.166 75.625 334.971 75.7855 334.718 75.9276C334.466 76.0668 334.129 76.1364 333.708 76.1364ZM333.845 75.233C334.248 75.233 334.589 75.1278 334.868 74.9176C335.146 74.7045 335.358 74.4105 335.502 74.0355C335.647 73.6577 335.72 73.2216 335.72 72.7273C335.72 72.2386 335.649 71.8111 335.507 71.4446C335.365 71.0753 335.154 70.7884 334.876 70.5838C334.598 70.3764 334.254 70.2727 333.845 70.2727C333.419 70.2727 333.064 70.3821 332.779 70.6009C332.498 70.8168 332.287 71.1108 332.145 71.483C332.005 71.8523 331.936 72.267 331.936 72.7273C331.936 73.1932 332.007 73.6165 332.149 73.9972C332.294 74.375 332.507 74.6761 332.788 74.9006C333.072 75.1222 333.424 75.233 333.845 75.233ZM345.372 73.2727H346.531L347.502 74.5511L347.758 74.892L349.207 76.8182H348.048L347.093 75.5398L346.855 75.2159L345.372 73.2727ZM349.565 71.6364C349.565 72.5568 349.399 73.3523 349.066 74.0227C348.734 74.6932 348.278 75.2102 347.699 75.5739C347.119 75.9375 346.457 76.1193 345.713 76.1193C344.968 76.1193 344.306 75.9375 343.727 75.5739C343.147 75.2102 342.691 74.6932 342.359 74.0227C342.027 73.3523 341.86 72.5568 341.86 71.6364C341.86 70.7159 342.027 69.9205 342.359 69.25C342.691 68.5795 343.147 68.0625 343.727 67.6989C344.306 67.3352 344.968 67.1534 345.713 67.1534C346.457 67.1534 347.119 67.3352 347.699 67.6989C348.278 68.0625 348.734 68.5795 349.066 69.25C349.399 69.9205 349.565 70.7159 349.565 71.6364ZM348.542 71.6364C348.542 70.8807 348.416 70.2429 348.163 69.723C347.913 69.2031 347.574 68.8097 347.145 68.5426C346.718 68.2756 346.241 68.142 345.713 68.142C345.184 68.142 344.706 68.2756 344.277 68.5426C343.85 68.8097 343.511 69.2031 343.258 69.723C343.008 70.2429 342.883 70.8807 342.883 71.6364C342.883 72.392 343.008 73.0298 343.258 73.5497C343.511 74.0696 343.85 74.4631 344.277 74.7301C344.706 74.9972 345.184 75.1307 345.713 75.1307C346.241 75.1307 346.718 74.9972 347.145 74.7301C347.574 74.4631 347.913 74.0696 348.163 73.5497C348.416 73.0298 348.542 72.392 348.542 71.6364ZM355.331 73.3239V69.4545H356.336V76H355.331V74.892H355.262C355.109 75.2244 354.87 75.5071 354.547 75.7401C354.223 75.9702 353.814 76.0852 353.319 76.0852C352.91 76.0852 352.547 75.9957 352.228 75.8168C351.91 75.6349 351.66 75.3622 351.478 74.9986C351.297 74.6321 351.206 74.1705 351.206 73.6136V69.4545H352.211V73.5455C352.211 74.0227 352.345 74.4034 352.612 74.6875C352.882 74.9716 353.225 75.1136 353.643 75.1136C353.893 75.1136 354.147 75.0497 354.406 74.9219C354.667 74.794 354.886 74.598 355.062 74.3338C355.241 74.0696 355.331 73.733 355.331 73.3239ZM360.923 76.1364C360.292 76.1364 359.748 75.9972 359.29 75.7188C358.836 75.4375 358.485 75.0455 358.238 74.5426C357.994 74.0369 357.871 73.4489 357.871 72.7784C357.871 72.108 357.994 71.517 358.238 71.0057C358.485 70.4915 358.829 70.0909 359.269 69.804C359.712 69.5142 360.229 69.3693 360.82 69.3693C361.161 69.3693 361.498 69.4261 361.83 69.5398C362.163 69.6534 362.465 69.8381 362.738 70.0938C363.011 70.3466 363.228 70.6818 363.39 71.0994C363.552 71.517 363.633 72.0312 363.633 72.642V73.0682H358.587V72.1989H362.61C362.61 71.8295 362.536 71.5 362.388 71.2102C362.244 70.9205 362.036 70.6918 361.766 70.5241C361.499 70.3565 361.184 70.2727 360.82 70.2727C360.42 70.2727 360.073 70.3722 359.781 70.571C359.491 70.767 359.268 71.0227 359.112 71.3381C358.955 71.6534 358.877 71.9915 358.877 72.3523V72.9318C358.877 73.4261 358.962 73.8452 359.133 74.1889C359.306 74.5298 359.546 74.7898 359.853 74.9688C360.16 75.1449 360.516 75.233 360.923 75.233C361.187 75.233 361.425 75.196 361.638 75.1222C361.854 75.0455 362.04 74.9318 362.197 74.7812C362.353 74.6278 362.474 74.4375 362.559 74.2102L363.531 74.483C363.428 74.8125 363.256 75.1023 363.015 75.3523C362.773 75.5994 362.475 75.7926 362.12 75.9318C361.765 76.0682 361.366 76.1364 360.923 76.1364ZM365.163 76V69.4545H366.134V70.4432H366.202C366.322 70.1193 366.538 69.8565 366.85 69.6548C367.163 69.4531 367.515 69.3523 367.907 69.3523C367.981 69.3523 368.073 69.3537 368.184 69.3565C368.295 69.3594 368.379 69.3636 368.435 69.3693V70.392C368.401 70.3835 368.323 70.3707 368.201 70.3537C368.082 70.3338 367.955 70.3239 367.822 70.3239C367.504 70.3239 367.219 70.3906 366.969 70.5241C366.722 70.6548 366.526 70.8366 366.381 71.0696C366.239 71.2997 366.168 71.5625 366.168 71.858V76H365.163ZM369.627 76V69.4545H370.633V76H369.627ZM370.139 68.3636C369.943 68.3636 369.774 68.2969 369.632 68.1634C369.493 68.0298 369.423 67.8693 369.423 67.6818C369.423 67.4943 369.493 67.3338 369.632 67.2003C369.774 67.0668 369.943 67 370.139 67C370.335 67 370.502 67.0668 370.642 67.2003C370.784 67.3338 370.855 67.4943 370.855 67.6818C370.855 67.8693 370.784 68.0298 370.642 68.1634C370.502 68.2969 370.335 68.3636 370.139 68.3636ZM375.219 76.1364C374.589 76.1364 374.045 75.9972 373.587 75.7188C373.133 75.4375 372.782 75.0455 372.535 74.5426C372.29 74.0369 372.168 73.4489 372.168 72.7784C372.168 72.108 372.29 71.517 372.535 71.0057C372.782 70.4915 373.126 70.0909 373.566 69.804C374.009 69.5142 374.526 69.3693 375.117 69.3693C375.458 69.3693 375.795 69.4261 376.127 69.5398C376.46 69.6534 376.762 69.8381 377.035 70.0938C377.308 70.3466 377.525 70.6818 377.687 71.0994C377.849 71.517 377.93 72.0312 377.93 72.642V73.0682H372.884V72.1989H376.907C376.907 71.8295 376.833 71.5 376.685 71.2102C376.54 70.9205 376.333 70.6918 376.063 70.5241C375.796 70.3565 375.481 70.2727 375.117 70.2727C374.717 70.2727 374.37 70.3722 374.077 70.571C373.788 70.767 373.565 71.0227 373.408 71.3381C373.252 71.6534 373.174 71.9915 373.174 72.3523V72.9318C373.174 73.4261 373.259 73.8452 373.43 74.1889C373.603 74.5298 373.843 74.7898 374.15 74.9688C374.457 75.1449 374.813 75.233 375.219 75.233C375.484 75.233 375.722 75.196 375.935 75.1222C376.151 75.0455 376.337 74.9318 376.494 74.7812C376.65 74.6278 376.771 74.4375 376.856 74.2102L377.827 74.483C377.725 74.8125 377.553 75.1023 377.312 75.3523C377.07 75.5994 376.772 75.7926 376.417 75.9318C376.062 76.0682 375.663 76.1364 375.219 76.1364ZM384.096 70.9205L383.192 71.1761C383.136 71.0256 383.052 70.8793 382.941 70.7372C382.833 70.5923 382.685 70.473 382.498 70.3793C382.31 70.2855 382.07 70.2386 381.778 70.2386C381.377 70.2386 381.043 70.331 380.776 70.5156C380.512 70.6974 380.38 70.929 380.38 71.2102C380.38 71.4602 380.471 71.6577 380.653 71.8026C380.835 71.9474 381.119 72.0682 381.505 72.1648L382.477 72.4034C383.062 72.5455 383.498 72.7628 383.785 73.0554C384.072 73.3452 384.215 73.7187 384.215 74.1761C384.215 74.5511 384.107 74.8864 383.891 75.1818C383.678 75.4773 383.38 75.7102 382.996 75.8807C382.613 76.0511 382.167 76.1364 381.658 76.1364C380.991 76.1364 380.438 75.9915 380.001 75.7017C379.563 75.4119 379.286 74.9886 379.17 74.4318L380.124 74.1932C380.215 74.5455 380.387 74.8097 380.64 74.9858C380.896 75.1619 381.229 75.25 381.641 75.25C382.11 75.25 382.482 75.1506 382.758 74.9517C383.036 74.75 383.175 74.5085 383.175 74.2273C383.175 74 383.096 73.8097 382.937 73.6562C382.778 73.5 382.533 73.3835 382.204 73.3068L381.113 73.0511C380.513 72.9091 380.073 72.6889 379.792 72.3906C379.513 72.0895 379.374 71.7131 379.374 71.2614C379.374 70.892 379.478 70.5653 379.685 70.2812C379.896 69.9972 380.181 69.7741 380.542 69.6122C380.906 69.4503 381.317 69.3693 381.778 69.3693C382.425 69.3693 382.934 69.5114 383.303 69.7955C383.675 70.0795 383.94 70.4545 384.096 70.9205Z" fill="black"/>
<path d="M473.057 67.2727H474.318L477.284 74.517H477.386L480.352 67.2727H481.614V76H480.625V69.3693H480.54L477.812 76H476.858L474.131 69.3693H474.045V76H473.057V67.2727ZM486.341 76.1364C485.71 76.1364 485.166 75.9972 484.708 75.7188C484.254 75.4375 483.903 75.0455 483.656 74.5426C483.412 74.0369 483.289 73.4489 483.289 72.7784C483.289 72.108 483.412 71.517 483.656 71.0057C483.903 70.4915 484.247 70.0909 484.687 69.804C485.13 69.5142 485.647 69.3693 486.238 69.3693C486.579 69.3693 486.916 69.4261 487.248 69.5398C487.581 69.6534 487.883 69.8381 488.156 70.0938C488.429 70.3466 488.646 70.6818 488.808 71.0994C488.97 71.517 489.051 72.0312 489.051 72.642V73.0682H484.005V72.1989H488.028C488.028 71.8295 487.954 71.5 487.806 71.2102C487.662 70.9205 487.454 70.6918 487.184 70.5241C486.917 70.3565 486.602 70.2727 486.238 70.2727C485.838 70.2727 485.491 70.3722 485.199 70.571C484.909 70.767 484.686 71.0227 484.529 71.3381C484.373 71.6534 484.295 71.9915 484.295 72.3523V72.9318C484.295 73.4261 484.38 73.8452 484.551 74.1889C484.724 74.5298 484.964 74.7898 485.271 74.9688C485.578 75.1449 485.934 75.233 486.341 75.233C486.605 75.233 486.843 75.196 487.056 75.1222C487.272 75.0455 487.458 74.9318 487.615 74.7812C487.771 74.6278 487.892 74.4375 487.977 74.2102L488.949 74.483C488.846 74.8125 488.674 75.1023 488.433 75.3523C488.191 75.5994 487.893 75.7926 487.538 75.9318C487.183 76.0682 486.784 76.1364 486.341 76.1364ZM493.427 69.4545V70.3068H490.035V69.4545H493.427ZM491.024 67.8864H492.029V74.125C492.029 74.4091 492.071 74.6222 492.153 74.7642C492.238 74.9034 492.346 74.9972 492.477 75.0455C492.61 75.0909 492.751 75.1136 492.899 75.1136C493.01 75.1136 493.1 75.108 493.172 75.0966C493.243 75.0824 493.299 75.071 493.342 75.0625L493.547 75.9659C493.478 75.9915 493.383 76.017 493.261 76.0426C493.139 76.071 492.984 76.0852 492.797 76.0852C492.512 76.0852 492.234 76.0241 491.961 75.902C491.691 75.7798 491.467 75.5938 491.288 75.3438C491.112 75.0938 491.024 74.7784 491.024 74.3977V67.8864ZM494.94 76V69.4545H495.912V70.4432H495.98C496.099 70.1193 496.315 69.8565 496.627 69.6548C496.94 69.4531 497.292 69.3523 497.684 69.3523C497.758 69.3523 497.85 69.3537 497.961 69.3565C498.072 69.3594 498.156 69.3636 498.213 69.3693V70.392C498.179 70.3835 498.1 70.3707 497.978 70.3537C497.859 70.3338 497.733 70.3239 497.599 70.3239C497.281 70.3239 496.997 70.3906 496.747 70.5241C496.5 70.6548 496.304 70.8366 496.159 71.0696C496.017 71.2997 495.946 71.5625 495.946 71.858V76H494.94ZM499.405 76V69.4545H500.411V76H499.405ZM499.916 68.3636C499.72 68.3636 499.551 68.2969 499.409 68.1634C499.27 68.0298 499.2 67.8693 499.2 67.6818C499.2 67.4943 499.27 67.3338 499.409 67.2003C499.551 67.0668 499.72 67 499.916 67C500.112 67 500.28 67.0668 500.419 67.2003C500.561 67.3338 500.632 67.4943 500.632 67.6818C500.632 67.8693 500.561 68.0298 500.419 68.1634C500.28 68.2969 500.112 68.3636 499.916 68.3636ZM504.912 76.1364C504.298 76.1364 503.77 75.9915 503.326 75.7017C502.883 75.4119 502.542 75.0128 502.304 74.5043C502.065 73.9957 501.946 73.4148 501.946 72.7614C501.946 72.0966 502.068 71.5099 502.312 71.0014C502.559 70.4901 502.903 70.0909 503.343 69.804C503.787 69.5142 504.304 69.3693 504.895 69.3693C505.355 69.3693 505.77 69.4545 506.139 69.625C506.508 69.7955 506.811 70.0341 507.047 70.3409C507.282 70.6477 507.429 71.0057 507.485 71.4148H506.48C506.403 71.1165 506.233 70.8523 505.968 70.6222C505.707 70.3892 505.355 70.2727 504.912 70.2727C504.52 70.2727 504.176 70.375 503.88 70.5795C503.588 70.7812 503.359 71.0668 503.194 71.4361C503.032 71.8026 502.951 72.233 502.951 72.7273C502.951 73.233 503.031 73.6733 503.19 74.0483C503.352 74.4233 503.579 74.7145 503.872 74.9219C504.167 75.1293 504.514 75.233 504.912 75.233C505.173 75.233 505.41 75.1875 505.623 75.0966C505.836 75.0057 506.017 74.875 506.164 74.7045C506.312 74.5341 506.417 74.3295 506.48 74.0909H507.485C507.429 74.4773 507.288 74.8253 507.064 75.1349C506.842 75.4418 506.548 75.6861 506.181 75.8679C505.818 76.0469 505.395 76.1364 504.912 76.1364ZM514.802 76.1364C514.257 76.1364 513.775 75.9986 513.358 75.723C512.94 75.4446 512.613 75.0526 512.377 74.5469C512.142 74.0384 512.024 73.4375 512.024 72.7443C512.024 72.0568 512.142 71.4602 512.377 70.9545C512.613 70.4489 512.941 70.0582 513.362 69.7827C513.782 69.5071 514.268 69.3693 514.819 69.3693C515.245 69.3693 515.582 69.4403 515.829 69.5824C516.079 69.7216 516.27 69.8807 516.4 70.0597C516.534 70.2358 516.637 70.3807 516.711 70.4943H516.797V67.2727H517.802V76H516.831V74.9943H516.711C516.637 75.1136 516.532 75.2642 516.396 75.446C516.26 75.625 516.065 75.7855 515.812 75.9276C515.559 76.0668 515.223 76.1364 514.802 76.1364ZM514.939 75.233C515.342 75.233 515.683 75.1278 515.961 74.9176C516.24 74.7045 516.451 74.4105 516.596 74.0355C516.741 73.6577 516.814 73.2216 516.814 72.7273C516.814 72.2386 516.743 71.8111 516.6 71.4446C516.458 71.0753 516.248 70.7884 515.97 70.5838C515.691 70.3764 515.348 70.2727 514.939 70.2727C514.512 70.2727 514.157 70.3821 513.873 70.6009C513.592 70.8168 513.38 71.1108 513.238 71.483C513.099 71.8523 513.029 72.267 513.029 72.7273C513.029 73.1932 513.1 73.6165 513.243 73.9972C513.387 74.375 513.6 74.6761 513.882 74.9006C514.166 75.1222 514.518 75.233 514.939 75.233ZM521.71 76.1534C521.295 76.1534 520.919 76.0753 520.581 75.919C520.243 75.7599 519.974 75.5312 519.775 75.233C519.576 74.9318 519.477 74.5682 519.477 74.142C519.477 73.767 519.551 73.4631 519.699 73.2301C519.846 72.9943 520.044 72.8097 520.291 72.6761C520.538 72.5426 520.811 72.4432 521.109 72.3778C521.41 72.3097 521.713 72.2557 522.017 72.2159C522.414 72.1648 522.737 72.1264 522.984 72.1009C523.234 72.0724 523.416 72.0256 523.529 71.9602C523.646 71.8949 523.704 71.7812 523.704 71.6193V71.5852C523.704 71.1648 523.589 70.8381 523.359 70.6051C523.132 70.3722 522.787 70.2557 522.324 70.2557C521.843 70.2557 521.467 70.3608 521.194 70.571C520.922 70.7812 520.73 71.0057 520.619 71.2443L519.664 70.9034C519.835 70.5057 520.062 70.196 520.346 69.9744C520.633 69.75 520.946 69.5937 521.284 69.5057C521.625 69.4148 521.96 69.3693 522.289 69.3693C522.5 69.3693 522.741 69.3949 523.014 69.446C523.289 69.4943 523.555 69.5952 523.811 69.7486C524.069 69.902 524.284 70.1335 524.454 70.4432C524.625 70.7528 524.71 71.1676 524.71 71.6875V76H523.704V75.1136H523.653C523.585 75.2557 523.471 75.4077 523.312 75.5696C523.153 75.7315 522.941 75.8693 522.677 75.983C522.413 76.0966 522.091 76.1534 521.71 76.1534ZM521.863 75.25C522.261 75.25 522.596 75.1719 522.869 75.0156C523.145 74.8594 523.352 74.6577 523.491 74.4105C523.633 74.1634 523.704 73.9034 523.704 73.6307V72.7102C523.662 72.7614 523.568 72.8082 523.423 72.8509C523.281 72.8906 523.116 72.9261 522.929 72.9574C522.744 72.9858 522.564 73.0114 522.387 73.0341C522.214 73.054 522.074 73.071 521.966 73.0852C521.704 73.1193 521.46 73.1747 521.233 73.2514C521.008 73.3253 520.826 73.4375 520.687 73.5881C520.551 73.7358 520.483 73.9375 520.483 74.1932C520.483 74.5426 520.612 74.8068 520.87 74.9858C521.132 75.1619 521.463 75.25 521.863 75.25ZM529.392 69.4545V70.3068H526V69.4545H529.392ZM526.989 67.8864H527.994V74.125C527.994 74.4091 528.036 74.6222 528.118 74.7642C528.203 74.9034 528.311 74.9972 528.442 75.0455C528.575 75.0909 528.716 75.1136 528.864 75.1136C528.974 75.1136 529.065 75.108 529.136 75.0966C529.207 75.0824 529.264 75.071 529.307 75.0625L529.511 75.9659C529.443 75.9915 529.348 76.017 529.226 76.0426C529.104 76.071 528.949 76.0852 528.761 76.0852C528.477 76.0852 528.199 76.0241 527.926 75.902C527.656 75.7798 527.432 75.5938 527.253 75.3438C527.077 75.0938 526.989 74.7784 526.989 74.3977V67.8864ZM532.831 76.1534C532.416 76.1534 532.04 76.0753 531.702 75.919C531.364 75.7599 531.095 75.5312 530.896 75.233C530.697 74.9318 530.598 74.5682 530.598 74.142C530.598 73.767 530.672 73.4631 530.82 73.2301C530.967 72.9943 531.165 72.8097 531.412 72.6761C531.659 72.5426 531.932 72.4432 532.23 72.3778C532.531 72.3097 532.834 72.2557 533.138 72.2159C533.536 72.1648 533.858 72.1264 534.105 72.1009C534.355 72.0724 534.537 72.0256 534.651 71.9602C534.767 71.8949 534.825 71.7812 534.825 71.6193V71.5852C534.825 71.1648 534.71 70.8381 534.48 70.6051C534.253 70.3722 533.908 70.2557 533.445 70.2557C532.964 70.2557 532.588 70.3608 532.315 70.571C532.043 70.7812 531.851 71.0057 531.74 71.2443L530.786 70.9034C530.956 70.5057 531.183 70.196 531.467 69.9744C531.754 69.75 532.067 69.5937 532.405 69.5057C532.746 69.4148 533.081 69.3693 533.411 69.3693C533.621 69.3693 533.862 69.3949 534.135 69.446C534.411 69.4943 534.676 69.5952 534.932 69.7486C535.19 69.902 535.405 70.1335 535.575 70.4432C535.746 70.7528 535.831 71.1676 535.831 71.6875V76H534.825V75.1136H534.774C534.706 75.2557 534.592 75.4077 534.433 75.5696C534.274 75.7315 534.063 75.8693 533.798 75.983C533.534 76.0966 533.212 76.1534 532.831 76.1534ZM532.984 75.25C533.382 75.25 533.717 75.1719 533.99 75.0156C534.266 74.8594 534.473 74.6577 534.612 74.4105C534.754 74.1634 534.825 73.9034 534.825 73.6307V72.7102C534.783 72.7614 534.689 72.8082 534.544 72.8509C534.402 72.8906 534.237 72.9261 534.05 72.9574C533.865 72.9858 533.685 73.0114 533.509 73.0341C533.335 73.054 533.195 73.071 533.087 73.0852C532.825 73.1193 532.581 73.1747 532.354 73.2514C532.129 73.3253 531.947 73.4375 531.808 73.5881C531.672 73.7358 531.604 73.9375 531.604 74.1932C531.604 74.5426 531.733 74.8068 531.991 74.9858C532.253 75.1619 532.584 75.25 532.984 75.25Z" fill="black"/>
<path d="M526.054 130.114C525.528 130.114 525.075 129.998 524.694 129.766C524.315 129.531 524.023 129.205 523.817 128.786C523.613 128.364 523.511 127.874 523.511 127.315C523.511 126.757 523.613 126.264 523.817 125.838C524.023 125.41 524.309 125.076 524.676 124.837C525.045 124.595 525.476 124.474 525.969 124.474C526.253 124.474 526.533 124.522 526.81 124.616C527.087 124.711 527.339 124.865 527.567 125.078C527.794 125.289 527.975 125.568 528.11 125.916C528.245 126.264 528.312 126.693 528.312 127.202V127.557H524.108V126.832H527.46C527.46 126.525 527.399 126.25 527.276 126.009C527.155 125.767 526.982 125.576 526.757 125.437C526.535 125.297 526.272 125.227 525.969 125.227C525.635 125.227 525.346 125.31 525.102 125.476C524.861 125.639 524.675 125.852 524.545 126.115C524.415 126.378 524.349 126.66 524.349 126.96V127.443C524.349 127.855 524.42 128.204 524.562 128.491C524.707 128.775 524.907 128.991 525.163 129.141C525.418 129.287 525.715 129.361 526.054 129.361C526.274 129.361 526.473 129.33 526.651 129.268C526.83 129.205 526.986 129.11 527.116 128.984C527.246 128.857 527.347 128.698 527.418 128.509L528.227 128.736C528.142 129.01 527.999 129.252 527.798 129.46C527.596 129.666 527.348 129.827 527.052 129.943C526.756 130.057 526.423 130.114 526.054 130.114ZM530.198 130.057C530.023 130.057 529.873 129.994 529.747 129.869C529.622 129.743 529.559 129.593 529.559 129.418C529.559 129.242 529.622 129.092 529.747 128.967C529.873 128.841 530.023 128.778 530.198 128.778C530.373 128.778 530.524 128.841 530.649 128.967C530.775 129.092 530.837 129.242 530.837 129.418C530.837 129.534 530.808 129.64 530.749 129.737C530.692 129.834 530.615 129.912 530.518 129.972C530.423 130.028 530.317 130.057 530.198 130.057ZM534.543 132.159C534.138 132.159 533.79 132.107 533.499 132.003C533.208 131.901 532.965 131.766 532.771 131.598C532.579 131.432 532.426 131.255 532.313 131.065L532.98 130.597C533.056 130.696 533.152 130.81 533.268 130.938C533.384 131.068 533.543 131.18 533.744 131.275C533.948 131.372 534.214 131.42 534.543 131.42C534.983 131.42 535.347 131.314 535.633 131.101C535.92 130.888 536.063 130.554 536.063 130.099V128.991H535.992C535.93 129.091 535.843 129.214 535.729 129.361C535.618 129.505 535.457 129.634 535.246 129.748C535.038 129.859 534.756 129.915 534.401 129.915C533.961 129.915 533.565 129.811 533.215 129.602C532.867 129.394 532.591 129.091 532.387 128.693C532.186 128.295 532.086 127.812 532.086 127.244C532.086 126.686 532.184 126.199 532.38 125.785C532.577 125.368 532.85 125.046 533.201 124.819C533.551 124.589 533.956 124.474 534.415 124.474C534.77 124.474 535.052 124.534 535.26 124.652C535.471 124.768 535.632 124.901 535.743 125.05C535.857 125.196 535.944 125.317 536.006 125.412H536.091V124.545H536.901V130.156C536.901 130.625 536.794 131.006 536.581 131.3C536.371 131.596 536.087 131.812 535.729 131.95C535.374 132.089 534.979 132.159 534.543 132.159ZM534.515 129.162C534.851 129.162 535.135 129.085 535.367 128.931C535.599 128.777 535.775 128.556 535.896 128.267C536.017 127.978 536.077 127.633 536.077 127.23C536.077 126.837 536.018 126.49 535.9 126.19C535.781 125.889 535.606 125.653 535.374 125.483C535.142 125.312 534.855 125.227 534.515 125.227C534.159 125.227 533.864 125.317 533.627 125.497C533.392 125.677 533.216 125.919 533.098 126.222C532.982 126.525 532.924 126.861 532.924 127.23C532.924 127.609 532.983 127.944 533.101 128.235C533.222 128.524 533.4 128.751 533.634 128.917C533.871 129.08 534.164 129.162 534.515 129.162ZM539.046 130.057C538.871 130.057 538.72 129.994 538.595 129.869C538.469 129.743 538.407 129.593 538.407 129.418C538.407 129.242 538.469 129.092 538.595 128.967C538.72 128.841 538.871 128.778 539.046 128.778C539.221 128.778 539.371 128.841 539.497 128.967C539.622 129.092 539.685 129.242 539.685 129.418C539.685 129.534 539.655 129.64 539.596 129.737C539.539 129.834 539.462 129.912 539.365 129.972C539.271 130.028 539.164 130.057 539.046 130.057ZM546.217 130.114C545.706 130.114 545.266 129.993 544.896 129.751C544.527 129.51 544.243 129.177 544.044 128.754C543.845 128.33 543.746 127.846 543.746 127.301C543.746 126.747 543.848 126.258 544.051 125.835C544.257 125.408 544.544 125.076 544.911 124.837C545.28 124.595 545.711 124.474 546.203 124.474C546.587 124.474 546.932 124.545 547.24 124.688C547.548 124.83 547.8 125.028 547.996 125.284C548.193 125.54 548.315 125.838 548.362 126.179H547.524C547.46 125.93 547.318 125.71 547.098 125.518C546.88 125.324 546.587 125.227 546.217 125.227C545.891 125.227 545.604 125.312 545.358 125.483C545.114 125.651 544.924 125.889 544.786 126.197C544.651 126.502 544.584 126.861 544.584 127.273C544.584 127.694 544.65 128.061 544.783 128.374C544.918 128.686 545.107 128.929 545.351 129.102C545.597 129.274 545.886 129.361 546.217 129.361C546.435 129.361 546.633 129.323 546.81 129.247C546.988 129.171 547.138 129.062 547.261 128.92C547.384 128.778 547.472 128.608 547.524 128.409H548.362C548.315 128.731 548.198 129.021 548.011 129.279C547.826 129.535 547.581 129.738 547.276 129.89C546.973 130.039 546.62 130.114 546.217 130.114ZM551.803 130.114C551.311 130.114 550.879 129.996 550.507 129.762C550.138 129.528 549.849 129.2 549.641 128.778C549.435 128.357 549.332 127.865 549.332 127.301C549.332 126.733 549.435 126.237 549.641 125.813C549.849 125.389 550.138 125.06 550.507 124.826C550.879 124.592 551.311 124.474 551.803 124.474C552.296 124.474 552.727 124.592 553.096 124.826C553.468 125.06 553.756 125.389 553.962 125.813C554.171 126.237 554.275 126.733 554.275 127.301C554.275 127.865 554.171 128.357 553.962 128.778C553.756 129.2 553.468 129.528 553.096 129.762C552.727 129.996 552.296 130.114 551.803 130.114ZM551.803 129.361C552.177 129.361 552.485 129.265 552.727 129.073C552.968 128.881 553.147 128.629 553.263 128.317C553.379 128.004 553.437 127.666 553.437 127.301C553.437 126.937 553.379 126.597 553.263 126.282C553.147 125.967 552.968 125.713 552.727 125.518C552.485 125.324 552.177 125.227 551.803 125.227C551.429 125.227 551.121 125.324 550.88 125.518C550.638 125.713 550.46 125.967 550.344 126.282C550.228 126.597 550.17 126.937 550.17 127.301C550.17 127.666 550.228 128.004 550.344 128.317C550.46 128.629 550.638 128.881 550.88 129.073C551.121 129.265 551.429 129.361 551.803 129.361ZM555.554 130V124.545H556.364V125.398H556.435C556.548 125.107 556.732 124.88 556.985 124.719C557.239 124.556 557.543 124.474 557.898 124.474C558.258 124.474 558.557 124.556 558.796 124.719C559.038 124.88 559.226 125.107 559.361 125.398H559.418C559.557 125.116 559.767 124.892 560.046 124.727C560.326 124.558 560.661 124.474 561.051 124.474C561.539 124.474 561.938 124.627 562.248 124.933C562.558 125.236 562.713 125.708 562.713 126.349V130H561.875V126.349C561.875 125.947 561.765 125.659 561.545 125.487C561.325 125.314 561.066 125.227 560.767 125.227C560.384 125.227 560.087 125.343 559.876 125.575C559.665 125.805 559.56 126.096 559.56 126.449V130H558.708V126.264C558.708 125.954 558.607 125.704 558.406 125.515C558.204 125.323 557.945 125.227 557.628 125.227C557.41 125.227 557.207 125.285 557.017 125.401C556.83 125.517 556.679 125.678 556.563 125.884C556.449 126.088 556.392 126.323 556.392 126.591V130H555.554ZM564.246 132.045V124.545H565.055V125.412H565.155C565.216 125.317 565.301 125.196 565.41 125.05C565.522 124.901 565.68 124.768 565.886 124.652C566.095 124.534 566.376 124.474 566.731 124.474C567.191 124.474 567.595 124.589 567.946 124.819C568.296 125.049 568.57 125.374 568.766 125.795C568.963 126.217 569.061 126.714 569.061 127.287C569.061 127.865 568.963 128.365 568.766 128.789C568.57 129.21 568.297 129.537 567.949 129.769C567.601 129.999 567.2 130.114 566.746 130.114C566.395 130.114 566.115 130.056 565.904 129.94C565.693 129.821 565.531 129.687 565.417 129.538C565.304 129.387 565.216 129.261 565.155 129.162H565.084V132.045H564.246ZM565.069 127.273C565.069 127.685 565.13 128.048 565.251 128.363C565.371 128.675 565.548 128.92 565.78 129.098C566.012 129.273 566.296 129.361 566.632 129.361C566.982 129.361 567.275 129.268 567.509 129.084C567.746 128.897 567.923 128.646 568.042 128.331C568.162 128.014 568.223 127.661 568.223 127.273C568.223 126.889 568.164 126.544 568.045 126.236C567.929 125.926 567.753 125.681 567.516 125.501C567.282 125.318 566.987 125.227 566.632 125.227C566.291 125.227 566.005 125.314 565.773 125.487C565.541 125.657 565.365 125.896 565.247 126.204C565.129 126.509 565.069 126.866 565.069 127.273ZM570.339 130V124.545H571.177V130H570.339ZM570.765 123.636C570.602 123.636 570.461 123.581 570.343 123.469C570.227 123.358 570.169 123.224 570.169 123.068C570.169 122.912 570.227 122.778 570.343 122.667C570.461 122.556 570.602 122.5 570.765 122.5C570.929 122.5 571.068 122.556 571.184 122.667C571.303 122.778 571.362 122.912 571.362 123.068C571.362 123.224 571.303 123.358 571.184 123.469C571.068 123.581 570.929 123.636 570.765 123.636ZM573.55 122.727V130H572.712V122.727H573.55ZM576.691 130.128C576.345 130.128 576.031 130.063 575.749 129.933C575.468 129.8 575.244 129.609 575.078 129.361C574.913 129.11 574.83 128.807 574.83 128.452C574.83 128.139 574.891 127.886 575.014 127.692C575.137 127.495 575.302 127.341 575.508 127.23C575.714 127.119 575.941 127.036 576.19 126.982C576.441 126.925 576.693 126.88 576.946 126.847C577.278 126.804 577.546 126.772 577.752 126.751C577.961 126.727 578.112 126.688 578.207 126.634C578.304 126.579 578.352 126.484 578.352 126.349V126.321C578.352 125.971 578.257 125.698 578.065 125.504C577.875 125.31 577.588 125.213 577.202 125.213C576.802 125.213 576.488 125.301 576.261 125.476C576.034 125.651 575.874 125.838 575.781 126.037L574.986 125.753C575.128 125.421 575.317 125.163 575.554 124.979C575.793 124.792 576.054 124.661 576.335 124.588C576.619 124.512 576.899 124.474 577.173 124.474C577.349 124.474 577.55 124.496 577.777 124.538C578.007 124.579 578.228 124.663 578.441 124.79C578.657 124.918 578.835 125.111 578.977 125.369C579.119 125.627 579.191 125.973 579.191 126.406V130H578.352V129.261H578.31C578.253 129.38 578.158 129.506 578.026 129.641C577.893 129.776 577.717 129.891 577.497 129.986C577.276 130.08 577.008 130.128 576.691 130.128ZM576.818 129.375C577.15 129.375 577.429 129.31 577.656 129.18C577.886 129.049 578.059 128.881 578.175 128.675C578.293 128.469 578.352 128.253 578.352 128.026V127.259C578.317 127.301 578.239 127.34 578.118 127.376C578 127.409 577.862 127.438 577.706 127.464C577.552 127.488 577.402 127.509 577.255 127.528C577.111 127.545 576.994 127.559 576.904 127.571C576.686 127.599 576.482 127.646 576.293 127.71C576.106 127.771 575.954 127.865 575.838 127.99C575.725 128.113 575.668 128.281 575.668 128.494C575.668 128.786 575.776 129.006 575.991 129.155C576.209 129.302 576.485 129.375 576.818 129.375ZM583.092 124.545V125.256H580.266V124.545H583.092ZM581.089 123.239H581.928V128.438C581.928 128.674 581.962 128.852 582.031 128.97C582.102 129.086 582.192 129.164 582.3 129.205C582.412 129.242 582.529 129.261 582.652 129.261C582.744 129.261 582.82 129.257 582.879 129.247C582.938 129.235 582.986 129.226 583.021 129.219L583.192 129.972C583.135 129.993 583.056 130.014 582.954 130.036C582.852 130.059 582.723 130.071 582.567 130.071C582.33 130.071 582.098 130.02 581.871 129.918C581.646 129.817 581.459 129.661 581.31 129.453C581.163 129.245 581.089 128.982 581.089 128.665V123.239ZM584.353 130V124.545H585.191V130H584.353ZM584.779 123.636C584.616 123.636 584.475 123.581 584.357 123.469C584.241 123.358 584.183 123.224 584.183 123.068C584.183 122.912 584.241 122.778 584.357 122.667C584.475 122.556 584.616 122.5 584.779 122.5C584.942 122.5 585.082 122.556 585.198 122.667C585.317 122.778 585.376 122.912 585.376 123.068C585.376 123.224 585.317 123.358 585.198 123.469C585.082 123.581 584.942 123.636 584.779 123.636ZM588.942 130.114C588.45 130.114 588.017 129.996 587.646 129.762C587.276 129.528 586.988 129.2 586.779 128.778C586.573 128.357 586.47 127.865 586.47 127.301C586.47 126.733 586.573 126.237 586.779 125.813C586.988 125.389 587.276 125.06 587.646 124.826C588.017 124.592 588.45 124.474 588.942 124.474C589.434 124.474 589.865 124.592 590.235 124.826C590.606 125.06 590.895 125.389 591.101 125.813C591.309 126.237 591.414 126.733 591.414 127.301C591.414 127.865 591.309 128.357 591.101 128.778C590.895 129.2 590.606 129.528 590.235 129.762C589.865 129.996 589.434 130.114 588.942 130.114ZM588.942 129.361C589.316 129.361 589.624 129.265 589.865 129.073C590.107 128.881 590.285 128.629 590.401 128.317C590.517 128.004 590.575 127.666 590.575 127.301C590.575 126.937 590.517 126.597 590.401 126.282C590.285 125.967 590.107 125.713 589.865 125.518C589.624 125.324 589.316 125.227 588.942 125.227C588.568 125.227 588.26 125.324 588.019 125.518C587.777 125.713 587.598 125.967 587.482 126.282C587.366 126.597 587.308 126.937 587.308 127.301C587.308 127.666 587.366 128.004 587.482 128.317C587.598 128.629 587.777 128.881 588.019 129.073C588.26 129.265 588.568 129.361 588.942 129.361ZM593.531 126.719V130H592.693V124.545H593.502V125.398H593.574C593.701 125.121 593.895 124.898 594.156 124.73C594.416 124.56 594.752 124.474 595.164 124.474C595.534 124.474 595.857 124.55 596.134 124.702C596.411 124.851 596.626 125.078 596.78 125.384C596.934 125.687 597.011 126.07 597.011 126.534V130H596.173V126.591C596.173 126.162 596.062 125.829 595.839 125.589C595.617 125.348 595.311 125.227 594.923 125.227C594.655 125.227 594.416 125.285 594.206 125.401C593.997 125.517 593.833 125.687 593.712 125.909C593.591 126.132 593.531 126.402 593.531 126.719ZM603.727 124.545V125.256H600.9V124.545H603.727ZM601.724 123.239H602.562V128.438C602.562 128.674 602.597 128.852 602.665 128.97C602.736 129.086 602.826 129.164 602.935 129.205C603.046 129.242 603.164 129.261 603.287 129.261C603.379 129.261 603.455 129.257 603.514 129.247C603.573 129.235 603.621 129.226 603.656 129.219L603.827 129.972C603.77 129.993 603.69 130.014 603.589 130.036C603.487 130.059 603.358 130.071 603.202 130.071C602.965 130.071 602.733 130.02 602.506 129.918C602.281 129.817 602.094 129.661 601.944 129.453C601.798 129.245 601.724 128.982 601.724 128.665V123.239ZM604.988 130V124.545H605.826V130H604.988ZM605.414 123.636C605.251 123.636 605.11 123.581 604.991 123.469C604.875 123.358 604.817 123.224 604.817 123.068C604.817 122.912 604.875 122.778 604.991 122.667C605.11 122.556 605.251 122.5 605.414 122.5C605.577 122.5 605.717 122.556 605.833 122.667C605.951 122.778 606.01 122.912 606.01 123.068C606.01 123.224 605.951 123.358 605.833 123.469C605.717 123.581 605.577 123.636 605.414 123.636ZM607.361 130V124.545H608.17V125.398H608.241C608.355 125.107 608.539 124.88 608.792 124.719C609.045 124.556 609.349 124.474 609.705 124.474C610.064 124.474 610.364 124.556 610.603 124.719C610.844 124.88 611.033 125.107 611.168 125.398H611.224C611.364 125.116 611.574 124.892 611.853 124.727C612.132 124.558 612.467 124.474 612.858 124.474C613.346 124.474 613.745 124.627 614.055 124.933C614.365 125.236 614.52 125.708 614.52 126.349V130H613.682V126.349C613.682 125.947 613.572 125.659 613.352 125.487C613.131 125.314 612.872 125.227 612.574 125.227C612.19 125.227 611.893 125.343 611.683 125.575C611.472 125.805 611.366 126.096 611.366 126.449V130H610.514V126.264C610.514 125.954 610.414 125.704 610.212 125.515C610.011 125.323 609.752 125.227 609.435 125.227C609.217 125.227 609.013 125.285 608.824 125.401C608.637 125.517 608.485 125.678 608.369 125.884C608.256 126.088 608.199 126.323 608.199 126.591V130H607.361ZM618.339 130.114C617.814 130.114 617.36 129.998 616.979 129.766C616.6 129.531 616.308 129.205 616.102 128.786C615.898 128.364 615.797 127.874 615.797 127.315C615.797 126.757 615.898 126.264 616.102 125.838C616.308 125.41 616.594 125.076 616.961 124.837C617.331 124.595 617.761 124.474 618.254 124.474C618.538 124.474 618.819 124.522 619.096 124.616C619.373 124.711 619.625 124.865 619.852 125.078C620.079 125.289 620.26 125.568 620.395 125.916C620.53 126.264 620.598 126.693 620.598 127.202V127.557H616.393V126.832H619.745C619.745 126.525 619.684 126.25 619.561 126.009C619.44 125.767 619.267 125.576 619.042 125.437C618.82 125.297 618.557 125.227 618.254 125.227C617.92 125.227 617.631 125.31 617.387 125.476C617.146 125.639 616.96 125.852 616.83 126.115C616.7 126.378 616.635 126.66 616.635 126.96V127.443C616.635 127.855 616.706 128.204 616.848 128.491C616.992 128.775 617.192 128.991 617.448 129.141C617.703 129.287 618.001 129.361 618.339 129.361C618.559 129.361 618.758 129.33 618.936 129.268C619.116 129.205 619.271 129.11 619.401 128.984C619.531 128.857 619.632 128.698 619.703 128.509L620.512 128.736C620.427 129.01 620.284 129.252 620.083 129.46C619.882 129.666 619.633 129.827 619.337 129.943C619.041 130.057 618.708 130.114 618.339 130.114Z" fill="black"/>
<path d="M526.054 164.114C525.528 164.114 525.075 163.998 524.694 163.766C524.315 163.531 524.023 163.205 523.817 162.786C523.613 162.364 523.511 161.874 523.511 161.315C523.511 160.757 523.613 160.264 523.817 159.838C524.023 159.41 524.309 159.076 524.676 158.837C525.045 158.595 525.476 158.474 525.969 158.474C526.253 158.474 526.533 158.522 526.81 158.616C527.087 158.711 527.339 158.865 527.567 159.078C527.794 159.289 527.975 159.568 528.11 159.916C528.245 160.264 528.312 160.693 528.312 161.202V161.557H524.108V160.832H527.46C527.46 160.525 527.399 160.25 527.276 160.009C527.155 159.767 526.982 159.576 526.757 159.437C526.535 159.297 526.272 159.227 525.969 159.227C525.635 159.227 525.346 159.31 525.102 159.476C524.861 159.639 524.675 159.852 524.545 160.115C524.415 160.378 524.349 160.66 524.349 160.96V161.443C524.349 161.855 524.42 162.204 524.562 162.491C524.707 162.775 524.907 162.991 525.163 163.141C525.418 163.287 525.715 163.361 526.054 163.361C526.274 163.361 526.473 163.33 526.651 163.268C526.83 163.205 526.986 163.11 527.116 162.984C527.246 162.857 527.347 162.698 527.418 162.509L528.227 162.736C528.142 163.01 527.999 163.252 527.798 163.46C527.596 163.666 527.348 163.827 527.052 163.943C526.756 164.057 526.423 164.114 526.054 164.114ZM530.198 164.057C530.023 164.057 529.873 163.994 529.747 163.869C529.622 163.743 529.559 163.593 529.559 163.418C529.559 163.242 529.622 163.092 529.747 162.967C529.873 162.841 530.023 162.778 530.198 162.778C530.373 162.778 530.524 162.841 530.649 162.967C530.775 163.092 530.837 163.242 530.837 163.418C530.837 163.534 530.808 163.64 530.749 163.737C530.692 163.834 530.615 163.912 530.518 163.972C530.423 164.028 530.317 164.057 530.198 164.057ZM534.543 166.159C534.138 166.159 533.79 166.107 533.499 166.003C533.208 165.901 532.965 165.766 532.771 165.598C532.579 165.432 532.426 165.255 532.313 165.065L532.98 164.597C533.056 164.696 533.152 164.81 533.268 164.938C533.384 165.068 533.543 165.18 533.744 165.275C533.948 165.372 534.214 165.42 534.543 165.42C534.983 165.42 535.347 165.314 535.633 165.101C535.92 164.888 536.063 164.554 536.063 164.099V162.991H535.992C535.93 163.091 535.843 163.214 535.729 163.361C535.618 163.505 535.457 163.634 535.246 163.748C535.038 163.859 534.756 163.915 534.401 163.915C533.961 163.915 533.565 163.811 533.215 163.602C532.867 163.394 532.591 163.091 532.387 162.693C532.186 162.295 532.086 161.812 532.086 161.244C532.086 160.686 532.184 160.199 532.38 159.785C532.577 159.368 532.85 159.046 533.201 158.819C533.551 158.589 533.956 158.474 534.415 158.474C534.77 158.474 535.052 158.534 535.26 158.652C535.471 158.768 535.632 158.901 535.743 159.05C535.857 159.196 535.944 159.317 536.006 159.412H536.091V158.545H536.901V164.156C536.901 164.625 536.794 165.006 536.581 165.3C536.371 165.596 536.087 165.812 535.729 165.95C535.374 166.089 534.979 166.159 534.543 166.159ZM534.515 163.162C534.851 163.162 535.135 163.085 535.367 162.931C535.599 162.777 535.775 162.556 535.896 162.267C536.017 161.978 536.077 161.633 536.077 161.23C536.077 160.837 536.018 160.49 535.9 160.19C535.781 159.889 535.606 159.653 535.374 159.483C535.142 159.312 534.855 159.227 534.515 159.227C534.159 159.227 533.864 159.317 533.627 159.497C533.392 159.677 533.216 159.919 533.098 160.222C532.982 160.525 532.924 160.861 532.924 161.23C532.924 161.609 532.983 161.944 533.101 162.235C533.222 162.524 533.4 162.751 533.634 162.917C533.871 163.08 534.164 163.162 534.515 163.162ZM539.046 164.057C538.871 164.057 538.72 163.994 538.595 163.869C538.469 163.743 538.407 163.593 538.407 163.418C538.407 163.242 538.469 163.092 538.595 162.967C538.72 162.841 538.871 162.778 539.046 162.778C539.221 162.778 539.371 162.841 539.497 162.967C539.622 163.092 539.685 163.242 539.685 163.418C539.685 163.534 539.655 163.64 539.596 163.737C539.539 163.834 539.462 163.912 539.365 163.972C539.271 164.028 539.164 164.057 539.046 164.057ZM546.288 164.114C545.763 164.114 545.309 163.998 544.928 163.766C544.549 163.531 544.257 163.205 544.051 162.786C543.848 162.364 543.746 161.874 543.746 161.315C543.746 160.757 543.848 160.264 544.051 159.838C544.257 159.41 544.544 159.076 544.911 158.837C545.28 158.595 545.711 158.474 546.203 158.474C546.487 158.474 546.768 158.522 547.045 158.616C547.322 158.711 547.574 158.865 547.801 159.078C548.028 159.289 548.21 159.568 548.344 159.916C548.479 160.264 548.547 160.693 548.547 161.202V161.557H544.342V160.832H547.695C547.695 160.525 547.633 160.25 547.51 160.009C547.389 159.767 547.216 159.576 546.991 159.437C546.769 159.297 546.506 159.227 546.203 159.227C545.869 159.227 545.58 159.31 545.337 159.476C545.095 159.639 544.909 159.852 544.779 160.115C544.649 160.378 544.584 160.66 544.584 160.96V161.443C544.584 161.855 544.655 162.204 544.797 162.491C544.941 162.775 545.141 162.991 545.397 163.141C545.653 163.287 545.95 163.361 546.288 163.361C546.509 163.361 546.707 163.33 546.885 163.268C547.065 163.205 547.22 163.11 547.35 162.984C547.48 162.857 547.581 162.698 547.652 162.509L548.462 162.736C548.376 163.01 548.233 163.252 548.032 163.46C547.831 163.666 547.582 163.827 547.286 163.943C546.99 164.057 546.658 164.114 546.288 164.114ZM550.3 158.545L551.607 160.776L552.914 158.545H553.88L552.118 161.273L553.88 164H552.914L551.607 161.884L550.3 164H549.334L551.067 161.273L549.334 158.545H550.3ZM557.138 164.114C556.612 164.114 556.159 163.998 555.778 163.766C555.399 163.531 555.107 163.205 554.901 162.786C554.697 162.364 554.595 161.874 554.595 161.315C554.595 160.757 554.697 160.264 554.901 159.838C555.107 159.41 555.393 159.076 555.76 158.837C556.129 158.595 556.56 158.474 557.053 158.474C557.337 158.474 557.617 158.522 557.894 158.616C558.171 158.711 558.423 158.865 558.651 159.078C558.878 159.289 559.059 159.568 559.194 159.916C559.329 160.264 559.396 160.693 559.396 161.202V161.557H555.192V160.832H558.544C558.544 160.525 558.483 160.25 558.36 160.009C558.239 159.767 558.066 159.576 557.841 159.437C557.619 159.297 557.356 159.227 557.053 159.227C556.719 159.227 556.43 159.31 556.186 159.476C555.945 159.639 555.759 159.852 555.629 160.115C555.499 160.378 555.433 160.66 555.433 160.96V161.443C555.433 161.855 555.504 162.204 555.646 162.491C555.791 162.775 555.991 162.991 556.247 163.141C556.502 163.287 556.799 163.361 557.138 163.361C557.358 163.361 557.557 163.33 557.735 163.268C557.914 163.205 558.07 163.11 558.2 162.984C558.33 162.857 558.431 162.698 558.502 162.509L559.311 162.736C559.226 163.01 559.083 163.252 558.882 163.46C558.68 163.666 558.432 163.827 558.136 163.943C557.84 164.057 557.507 164.114 557.138 164.114ZM562.887 164.114C562.376 164.114 561.936 163.993 561.566 163.751C561.197 163.51 560.913 163.177 560.714 162.754C560.515 162.33 560.416 161.846 560.416 161.301C560.416 160.747 560.517 160.258 560.721 159.835C560.927 159.408 561.213 159.076 561.58 158.837C561.95 158.595 562.381 158.474 562.873 158.474C563.257 158.474 563.602 158.545 563.91 158.688C564.218 158.83 564.47 159.028 564.666 159.284C564.863 159.54 564.985 159.838 565.032 160.179H564.194C564.13 159.93 563.988 159.71 563.768 159.518C563.55 159.324 563.257 159.227 562.887 159.227C562.561 159.227 562.274 159.312 562.028 159.483C561.784 159.651 561.593 159.889 561.456 160.197C561.321 160.502 561.254 160.861 561.254 161.273C561.254 161.694 561.32 162.061 561.453 162.374C561.588 162.686 561.777 162.929 562.021 163.102C562.267 163.274 562.556 163.361 562.887 163.361C563.105 163.361 563.303 163.323 563.48 163.247C563.658 163.171 563.808 163.062 563.931 162.92C564.054 162.778 564.142 162.608 564.194 162.409H565.032C564.985 162.731 564.868 163.021 564.681 163.279C564.496 163.535 564.251 163.738 563.945 163.89C563.642 164.039 563.29 164.114 562.887 164.114ZM569.695 161.77V158.545H570.533V164H569.695V163.077H569.638C569.51 163.354 569.311 163.589 569.041 163.783C568.771 163.975 568.431 164.071 568.019 164.071C567.678 164.071 567.375 163.996 567.11 163.847C566.844 163.696 566.636 163.469 566.485 163.165C566.333 162.86 566.257 162.475 566.257 162.011V158.545H567.095V161.955C567.095 162.352 567.207 162.67 567.429 162.906C567.654 163.143 567.941 163.261 568.289 163.261C568.497 163.261 568.709 163.208 568.924 163.102C569.142 162.995 569.324 162.832 569.471 162.612C569.62 162.391 569.695 162.111 569.695 161.77ZM574.44 158.545V159.256H571.613V158.545H574.44ZM572.437 157.239H573.275V162.438C573.275 162.674 573.31 162.852 573.378 162.97C573.449 163.086 573.539 163.164 573.648 163.205C573.759 163.242 573.877 163.261 574 163.261C574.092 163.261 574.168 163.257 574.227 163.247C574.286 163.235 574.333 163.226 574.369 163.219L574.539 163.972C574.483 163.993 574.403 164.014 574.301 164.036C574.2 164.059 574.071 164.071 573.914 164.071C573.678 164.071 573.446 164.02 573.218 163.918C572.993 163.817 572.806 163.661 572.657 163.453C572.511 163.245 572.437 162.982 572.437 162.665V157.239ZM575.701 164V158.545H576.539V164H575.701ZM576.127 157.636C575.963 157.636 575.823 157.581 575.704 157.469C575.588 157.358 575.53 157.224 575.53 157.068C575.53 156.912 575.588 156.778 575.704 156.667C575.823 156.556 575.963 156.5 576.127 156.5C576.29 156.5 576.43 156.556 576.546 156.667C576.664 156.778 576.723 156.912 576.723 157.068C576.723 157.224 576.664 157.358 576.546 157.469C576.43 157.581 576.29 157.636 576.127 157.636ZM580.29 164.114C579.797 164.114 579.365 163.996 578.993 163.762C578.624 163.528 578.335 163.2 578.127 162.778C577.921 162.357 577.818 161.865 577.818 161.301C577.818 160.733 577.921 160.237 578.127 159.813C578.335 159.389 578.624 159.06 578.993 158.826C579.365 158.592 579.797 158.474 580.29 158.474C580.782 158.474 581.213 158.592 581.582 158.826C581.954 159.06 582.243 159.389 582.449 159.813C582.657 160.237 582.761 160.733 582.761 161.301C582.761 161.865 582.657 162.357 582.449 162.778C582.243 163.2 581.954 163.528 581.582 163.762C581.213 163.996 580.782 164.114 580.29 164.114ZM580.29 163.361C580.664 163.361 580.971 163.265 581.213 163.073C581.454 162.881 581.633 162.629 581.749 162.317C581.865 162.004 581.923 161.666 581.923 161.301C581.923 160.937 581.865 160.597 581.749 160.282C581.633 159.967 581.454 159.713 581.213 159.518C580.971 159.324 580.664 159.227 580.29 159.227C579.916 159.227 579.608 159.324 579.366 159.518C579.125 159.713 578.946 159.967 578.83 160.282C578.714 160.597 578.656 160.937 578.656 161.301C578.656 161.666 578.714 162.004 578.83 162.317C578.946 162.629 579.125 162.881 579.366 163.073C579.608 163.265 579.916 163.361 580.29 163.361ZM584.879 160.719V164H584.04V158.545H584.85V159.398H584.921C585.049 159.121 585.243 158.898 585.504 158.73C585.764 158.56 586.1 158.474 586.512 158.474C586.881 158.474 587.205 158.55 587.482 158.702C587.759 158.851 587.974 159.078 588.128 159.384C588.282 159.687 588.359 160.07 588.359 160.534V164H587.521V160.591C587.521 160.162 587.409 159.829 587.187 159.589C586.964 159.348 586.659 159.227 586.271 159.227C586.003 159.227 585.764 159.285 585.553 159.401C585.345 159.517 585.18 159.687 585.06 159.909C584.939 160.132 584.879 160.402 584.879 160.719ZM595.075 158.545V159.256H592.248V158.545H595.075ZM593.072 157.239H593.91V162.438C593.91 162.674 593.944 162.852 594.013 162.97C594.084 163.086 594.174 163.164 594.283 163.205C594.394 163.242 594.511 163.261 594.634 163.261C594.727 163.261 594.802 163.257 594.862 163.247C594.921 163.235 594.968 163.226 595.004 163.219L595.174 163.972C595.117 163.993 595.038 164.014 594.936 164.036C594.834 164.059 594.705 164.071 594.549 164.071C594.312 164.071 594.08 164.02 593.853 163.918C593.628 163.817 593.441 163.661 593.292 163.453C593.145 163.245 593.072 162.982 593.072 162.665V157.239ZM596.335 164V158.545H597.173V164H596.335ZM596.762 157.636C596.598 157.636 596.457 157.581 596.339 157.469C596.223 157.358 596.165 157.224 596.165 157.068C596.165 156.912 596.223 156.778 596.339 156.667C596.457 156.556 596.598 156.5 596.762 156.5C596.925 156.5 597.065 156.556 597.181 156.667C597.299 156.778 597.358 156.912 597.358 157.068C597.358 157.224 597.299 157.358 597.181 157.469C597.065 157.581 596.925 157.636 596.762 157.636ZM598.708 164V158.545H599.518V159.398H599.589C599.703 159.107 599.886 158.88 600.14 158.719C600.393 158.556 600.697 158.474 601.052 158.474C601.412 158.474 601.712 158.556 601.951 158.719C602.192 158.88 602.38 159.107 602.515 159.398H602.572C602.712 159.116 602.921 158.892 603.201 158.727C603.48 158.558 603.815 158.474 604.206 158.474C604.693 158.474 605.092 158.627 605.402 158.933C605.712 159.236 605.868 159.708 605.868 160.349V164H605.029V160.349C605.029 159.947 604.919 159.659 604.699 159.487C604.479 159.314 604.22 159.227 603.922 159.227C603.538 159.227 603.241 159.343 603.03 159.575C602.819 159.805 602.714 160.096 602.714 160.449V164H601.862V160.264C601.862 159.954 601.761 159.704 601.56 159.515C601.359 159.323 601.1 159.227 600.782 159.227C600.565 159.227 600.361 159.285 600.172 159.401C599.984 159.517 599.833 159.678 599.717 159.884C599.603 160.088 599.547 160.323 599.547 160.591V164H598.708ZM609.687 164.114C609.161 164.114 608.708 163.998 608.327 163.766C607.948 163.531 607.656 163.205 607.45 162.786C607.246 162.364 607.144 161.874 607.144 161.315C607.144 160.757 607.246 160.264 607.45 159.838C607.656 159.41 607.942 159.076 608.309 158.837C608.678 158.595 609.109 158.474 609.602 158.474C609.886 158.474 610.166 158.522 610.443 158.616C610.72 158.711 610.972 158.865 611.2 159.078C611.427 159.289 611.608 159.568 611.743 159.916C611.878 160.264 611.945 160.693 611.945 161.202V161.557H607.741V160.832H611.093C611.093 160.525 611.031 160.25 610.908 160.009C610.788 159.767 610.615 159.576 610.39 159.437C610.167 159.297 609.905 159.227 609.602 159.227C609.268 159.227 608.979 159.31 608.735 159.476C608.494 159.639 608.308 159.852 608.178 160.115C608.047 160.378 607.982 160.66 607.982 160.96V161.443C607.982 161.855 608.053 162.204 608.195 162.491C608.34 162.775 608.54 162.991 608.795 163.141C609.051 163.287 609.348 163.361 609.687 163.361C609.907 163.361 610.106 163.33 610.283 163.268C610.463 163.205 610.618 163.11 610.749 162.984C610.879 162.857 610.979 162.698 611.05 162.509L611.86 162.736C611.775 163.01 611.632 163.252 611.43 163.46C611.229 163.666 610.981 163.827 610.685 163.943C610.389 164.057 610.056 164.114 609.687 164.114Z" fill="black"/>
<path d="M58 188V192C58 192.265 58.1054 192.52 58.2929 192.707C58.4804 192.895 58.7348 193 59 193H63M58 188H51C50.4696 188 49.9609 188.211 49.5858 188.586C49.2107 188.961 49 189.47 49 190V204C49 204.53 49.2107 205.039 49.5858 205.414C49.9609 205.789 50.4696 206 51 206H61C61.5304 206 62.0391 205.789 62.4142 205.414C62.7893 205.039 63 204.53 63 204V193M58 188L63 193" stroke="black" stroke-width="2" stroke-linecap="round" stroke-linejoin="round"/>
<line x1="67.6727" y1="196.622" x2="149.673" y2="125.622" stroke="black"/>
<line x1="68.3273" y1="196.622" x2="150.325" y2="267.625" stroke="black" stroke-opacity="0.5" stroke-dasharray="2 2"/>
<line x1="68" y1="196.5" x2="150" y2="196.5" stroke="black" stroke-opacity="0.5"/>
<g clip-path="url(#clip2_1_2)">
<path d="M493 124.5L494.889 123V129M498.667 123H501.5C501.75 123 501.991 123.079 502.168 123.22C502.345 123.36 502.444 123.551 502.444 123.75V125.25C502.444 125.449 502.345 125.64 502.168 125.78C501.991 125.921 501.75 126 501.5 126H499.611C499.361 126 499.12 126.079 498.943 126.22C498.766 126.36 498.667 126.551 498.667 126.75V128.25C498.667 128.449 498.766 128.64 498.943 128.78C499.12 128.921 499.361 129 499.611 129H502.444M506.222 123H508.583C508.959 123 509.319 123.119 509.585 123.33C509.851 123.54 510 123.827 510 124.125V124.875C510 125.173 509.851 125.46 509.585 125.67C509.319 125.881 508.959 126 508.583 126M508.583 126H507.167M508.583 126C508.959 126 509.319 126.119 509.585 126.33C509.851 126.54 510 126.827 510 127.125V127.875C510 128.173 509.851 128.46 509.585 128.67C509.319 128.881 508.959 129 508.583 129H506.222" stroke="black" stroke-width="2" stroke-linecap="round" stroke-linejoin="round"/>
<line x1="505.354" y1="113.646" x2="514.354" y2="122.646" stroke="black" stroke-opacity="0.5"/>
</g>
<rect x="490.5" y="114.5" width="23" height="23" stroke="black" stroke-opacity="0.5"/>
<g clip-path="url(#clip3_1_2)">
<path d="M493 159.5L494.889 158V164M498.667 158H501.5C501.75 158 501.991 158.079 502.168 158.22C502.345 158.36 502.444 158.551 502.444 158.75V160.25C502.444 160.449 502.345 160.64 502.168 160.78C501.991 160.921 501.75 161 501.5 161H499.611C499.361 161 499.12 161.079 498.943 161.22C498.766 161.36 498.667 161.551 498.667 161.75V163.25C498.667 163.449 498.766 163.64 498.943 163.78C499.12 163.921 499.361 164 499.611 164H502.444M506.222 158H508.583C508.959 158 509.319 158.119 509.585 158.33C509.851 158.54 510 158.827 510 159.125V159.875C510 160.173 509.851 160.46 509.585 160.67C509.319 160.881 508.959 161 508.583 161M508.583 161H507.167M508.583 161C508.959 161 509.319 161.119 509.585 161.33C509.851 161.54 510 161.827 510 162.125V162.875C510 163.173 509.851 163.46 509.585 163.67C509.319 163.881 508.959 164 508.583 164H506.222" stroke="black" stroke-width="2" stroke-linecap="round" stroke-linejoin="round"/>
<line x1="505.354" y1="148.646" x2="514.354" y2="157.646" stroke="black" stroke-opacity="0.5"/>
</g>
<rect x="490.5" y="149.5" width="23" height="23" stroke="black" stroke-opacity="0.5"/>
<defs>
<clipPath id="clip0_1_2">
<rect width="24" height="24" fill="white" transform="translate(320 114)"/>
</clipPath>
<clipPath id="clip1_1_2">
<rect width="24" height="24" fill="white" transform="translate(320 149)"/>
</clipPath>
<clipPath id="clip2_1_2">
<rect x="490" y="114" width="24" height="24" fill="white"/>
</clipPath>
<clipPath id="clip3_1_2">
<rect x="490" y="149" width="24" height="24" fill="white"/>
</clipPath>
</defs>
</svg>
